<svg width="44" height="44" fill="none" xmlns="http://www.w3.org/2000/svg"><path d="M43.962 22c0 12.13-9.833 21.962-21.962 21.962S.04 34.129.04 22 9.87.04 22 .04C34.13.039 43.962 9.87 43.962 22z" fill="#FEB109"/><g filter="url(#filter0_d_2468_147)"><path d="M21.553 15.272L10.863 25.96a1.304 1.304 0 00-.383.929c0 .352.136.682.384.93l.787.786a1.316 1.316 0 001.858 0l8.976-8.976 8.986 8.986c.247.247.577.384.929.384.352 0 .682-.137.93-.384l.786-.787c.248-.247.384-.577.384-.93a1.3 1.3 0 00-.384-.928l-10.698-10.7a1.306 1.306 0 00-.932-.383c-.354 0-.685.136-.933.384z" fill="#E9EEF4"/></g><defs><filter id="filter0_d_2468_147" x="3.48" y="11.889" width="38.02" height="28.111" filterUnits="userSpaceOnUse" color-interpolation-filters="sRGB"><feFlood flood-opacity="0" result="BackgroundImageFix"/><feColorMatrix in="SourceAlpha" values="0 0 0 0 0 0 0 0 0 0 0 0 0 0 0 0 0 0 127 0" result="hardAlpha"/><feOffset dy="4"/><feGaussianBlur stdDeviation="3.5"/><feComposite in2="hardAlpha" operator="out"/><feColorMatrix values="0 0 0 0 0 0 0 0 0 0 0 0 0 0 0 0 0 0 0.2 0"/><feBlend in2="BackgroundImageFix" result="effect1_dropShadow_2468_147"/><feBlend in="SourceGraphic" in2="effect1_dropShadow_2468_147" result="shape"/></filter></defs></svg>