<svg width="10" height="18" fill="none" xmlns="http://www.w3.org/2000/svg"><path d="M5.728 7.59V3.736a5.14 5.14 0 012.267.985c.132.091.288.14.449.142a.942.942 0 00.941-.93.836.836 0 00-.24-.592 5.779 5.779 0 00-3.428-1.38V.67a.668.668 0 00-.668-.668h-.023a.679.679 0 00-.69.668v1.249C1.874 2.093.198 3.615.198 5.64c0 2.486 2.114 3.176 4.14 3.723v4.38a5.685 5.685 0 01-2.902-1.28.912.912 0 00-.548-.197.953.953 0 00-.887.963.836.836 0 00.241.592 6.45 6.45 0 004.107 1.653v1.228a.678.678 0 00.712.645c.369 0 .668-.3.668-.668v-1.227c2.99-.197 4.194-2.015 4.194-3.942 0-2.585-2.168-3.373-4.194-3.92zm-1.38-.35c-1.194-.35-2.125-.712-2.125-1.73 0-1.019.843-1.753 2.125-1.851v3.58zm1.38 6.527V9.78c1.237.35 2.2.82 2.19 1.97 0 .833-.57 1.819-2.19 2.016z" fill="#FEB109"/></svg>