<svg width="31" height="31" fill="none" xmlns="http://www.w3.org/2000/svg"><g clip-path="url(#clip0_93_29982)"><path d="M15.008 30.5c8.284 0 15-6.716 15-15 0-8.284-6.716-15-15-15-8.284 0-15 6.716-15 15 0 8.284 6.716 15 15 15z" fill="#FEB109"/><path d="M15.01 28.794A13.294 13.294 0 1128.305 15.5 13.309 13.309 0 0115.01 28.794z" fill="#132B4D"/><path d="M7.921 15.498a7.575 7.575 0 017.77-7.77 7.452 7.452 0 016.403 3.458l-2.945 1.708a3.862 3.862 0 00-3.459-1.836c-2.646 0-4.353 1.771-4.353 4.44 0 2.668 1.707 4.439 4.353 4.439a3.837 3.837 0 003.459-1.835l2.945 1.707a7.399 7.399 0 01-6.404 3.458 7.575 7.575 0 01-7.769-7.77z" fill="#E215A7"/><path d="M5.739 15.912a.41.41 0 000-.822H4.337a10.692 10.692 0 0110.26-10.26v1.21a.41.41 0 00.821 0V4.413a.411.411 0 00-.41-.411A11.512 11.512 0 003.508 15.5a.411.411 0 00.41.411h1.82zm9.168 9.474a.41.41 0 01.82-.04l.07 1.4a10.692 10.692 0 009.743-10.753l-1.208.06a.411.411 0 01-.04-.82l1.624-.08a.41.41 0 01.431.389 11.512 11.512 0 01-10.919 12.051.411.411 0 01-.43-.39l-.09-1.817zm3.465-20.024a10.656 10.656 0 016.927 7.28.411.411 0 00.803-.06.41.41 0 00-.012-.16 11.474 11.474 0 00-7.46-7.839.41.41 0 00-.258.78zm-6.158 20.451a10.673 10.673 0 01-7.575-7.75.41.41 0 00-.797.197A11.494 11.494 0 0012 26.606a.41.41 0 10.215-.793z" fill="#FEB109"/></g><defs><clipPath id="clip0_93_29982"><path fill="#fff" transform="translate(.008 .5)" d="M0 0h30v30H0z"/></clipPath></defs></svg>