<svg width="41" height="45" fill="none" xmlns="http://www.w3.org/2000/svg"><path d="M37.507 18.75h-1.5V15a6.757 6.757 0 00-6.75-6.75h-.6a12 12 0 00-22.799 0h-2.1A3.754 3.754 0 00.008 12v24.75a8.26 8.26 0 008.25 8.249h19.5a8.26 8.26 0 008.25-8.25v-3a4.505 4.505 0 004.5-4.5v-7.5a3.003 3.003 0 00-3-3zm0 1.5a1.5 1.5 0 010 3h-1.5v-3h1.5zm-8.25-10.5a5.256 5.256 0 015.25 5.25v2.762a8.26 8.26 0 00-5.48-3.415 12.03 12.03 0 00.018-4.597h.212zm-12-8.25a10.51 10.51 0 0110.259 12.75H25.97a9 9 0 10-17.428 0H7A10.503 10.503 0 0117.257 1.5zm3.723 12.75a2.617 2.617 0 00-.763-2.25 2.622 2.622 0 00-1.01-4.367V7.05a.75.75 0 10-1.5 0v.45h-.9v-.45a.75.75 0 10-1.5 0v.45h-1.05a.75.75 0 000 1.5h.75v5.25h-4.905a7.5 7.5 0 1114.31 0H20.98zM18.382 9a1.125 1.125 0 110 2.25h-1.875V9h1.875zm-1.875 3.75h1.875a1.125 1.125 0 011.06 1.5h-2.934v-1.5zm-12.75-3H5.47a12.019 12.019 0 000 4.5s-1.87-.001-1.904-.003c-1.069-.049-1.949-.914-2.052-2.017L1.508 12a2.253 2.253 0 012.25-2.25zm30.75 27a6.757 6.757 0 01-6.75 6.749h-19.5a6.757 6.757 0 01-6.75-6.75V33h6.75v3a.75.75 0 00.75.75h6.095a3 3 0 100-1.5H9.758v-3a.75.75 0 00-.75-.75h-7.5V30h13.595a3 3 0 100-1.5H1.507V27h7.5a.75.75 0 00.75-.75V22.5h5.345a3 3 0 100-1.5H9.008a.75.75 0 00-.75.75v3.75h-6.75V15.03a3.59 3.59 0 001.99.717c.057.002 24.26.003 24.26.003a6.757 6.757 0 016.75 6.75v.75h-5.25a5.25 5.25 0 000 10.5h5.25v3zm-18-.75a1.5 1.5 0 113.001 0 1.5 1.5 0 01-3 0zm0-6.75a1.5 1.5 0 113.001 0 1.5 1.5 0 01-3 0zm0-7.5a1.5 1.5 0 113 0 1.5 1.5 0 01-3 0zm12.75 10.5a3.75 3.75 0 110-7.5h8.25a2.98 2.98 0 001.5-.404v4.903a3.003 3.003 0 01-3 3h-6.75z" fill="#E9EEF4"/></svg>