<svg width="46" height="46" fill="none" xmlns="http://www.w3.org/2000/svg"><path fill-rule="evenodd" clip-rule="evenodd" d="M32.264-.001v4.5h-1.5a.75.75 0 00-.75.75v25.505a.75.75 0 00.75.75h1.5v4.5h1.5v-4.5h1.5a.75.75 0 00.75-.75V5.25a.75.75 0 00-.75-.75h-1.5V-.001h-1.5zM34.514 6v24.004h-3V6h3zM14.791 44.786a.75.75 0 01-.53.22H.759a.75.75 0 01-.75-.75v-5.25a7.501 7.501 0 014.726-7 4.5 4.5 0 115.55 0 7.547 7.547 0 013.976 3.751v-4.253h-1.5a.75.75 0 01-.75-.75v-9.002H9.985l-2.062 1.373a.75.75 0 01-.826 0l-2.062-1.372H.759a.75.75 0 01-.75-.75V13.5a.75.75 0 01.75-.75H12.01v-1.5a.75.75 0 01.75-.75h1.5V6h1.5v4.5h1.5a.75.75 0 01.75.75v19.504a.75.75 0 01-.75.75h-1.5v4.5h-1.38c.214.482.375.985.48 1.501h24.154V6h-.75a.75.75 0 01-.66-.398.75.75 0 01.037-.75l3-4.5a.75.75 0 011.246 0l3 4.5a.75.75 0 01.038.75.75.75 0 01-.66.398h-.75v35.256a.75.75 0 01-.75.75H15.01v2.25a.75.75 0 01-.22.53zm24.974-5.78H15.011v1.5h27.004V5.25a.75.75 0 01.75-.75h.098l-1.598-2.4-1.597 2.4h.097a.75.75 0 01.75.75v33.005a.75.75 0 01-.75.75zM9.348 20.38a.75.75 0 01.412-.128h3.75v-6h-12v6h3.75a.75.75 0 01.413.128l1.838 1.223 1.838-1.223zm4.163 1.373v8.25h3V12.002h-3v.75h.75a.75.75 0 01.75.75v7.501a.75.75 0 01-.75.75h-.75zM3.909 39.005l.818 4.501h5.566l.818-4.5H3.909zm1.106-12.168a3 3 0 104.99 3.334 3 3 0 00-4.99-3.334zm-1.748 7.925a6.001 6.001 0 00-1.758 4.243v4.501h1.688l-.923-5.116a.75.75 0 01.416-.814.75.75 0 01.32-.071h9a.75.75 0 01.74.56.75.75 0 01.01.325l-.937 5.116h1.688v-4.5a6.001 6.001 0 00-10.244-4.244zM23.262 7.5V3h1.5v4.5h1.501a.75.75 0 01.75.75v22.504a.75.75 0 01-.75.75h-1.5v4.5h-1.5v-4.5h-1.5a.75.75 0 01-.75-.75V8.25a.75.75 0 01.75-.75h1.5zm2.25 22.504V9h-3v21.004h3zM5.26 16.502h-1.5v1.5h1.5v-1.5zm1.5 0h1.5v1.5h-1.5v-1.5zm4.5 0h-1.5v1.5h1.5v-1.5z" fill="#E9EEF4"/></svg>