<svg width="46" height="46" fill="none" xmlns="http://www.w3.org/2000/svg"><path d="M41.937 19.062a3.819 3.819 0 00-3.736 3.05h-6.94v-3.67a1.4 1.4 0 00-.685-1.21l-.617-.36 4.296-4.297a3.813 3.813 0 10-1.078-1.078l-4.584 4.582-4.956-2.888V7.548a3.812 3.812 0 10-1.525 0v5.643l-4.956 2.885-4.582-4.582a3.812 3.812 0 10-1.079 1.078l4.297 4.297-.614.358a1.4 1.4 0 00-.691 1.216v3.669H7.548a3.813 3.813 0 100 1.525h6.939v3.67a1.4 1.4 0 00.69 1.21l.617.36-4.297 4.296a3.813 3.813 0 101.078 1.079l4.58-4.582 4.957 2.888v5.643a3.813 3.813 0 101.525 0v-5.643l4.956-2.885 4.582 4.582a3.813 3.813 0 101.078-1.078l-4.297-4.297.615-.358a1.4 1.4 0 00.69-1.216v-3.67h6.94a3.813 3.813 0 103.736-4.574zm-7.2-11.285a2.287 2.287 0 113.235 3.235 2.342 2.342 0 01-3.235 0 2.288 2.288 0 010-3.234v-.001zm-26.96 3.235a2.288 2.288 0 113.234 0 2.342 2.342 0 01-3.234 0zm-3.965 14.15a2.288 2.288 0 110-4.576 2.288 2.288 0 010 4.576zm7.2 12.81a2.342 2.342 0 01-3.234 0 2.288 2.288 0 113.234 0zm26.96-3.235a2.288 2.288 0 010 3.234 2.342 2.342 0 01-3.235 0 2.288 2.288 0 113.235-3.234zM22.874 21.983l-6.286-3.813 6.286-3.657 6.292 3.664-6.292 3.806zm-6.862-2.374l6.1 3.695v7.488l-6.1-3.553v-7.63zm7.625 3.695l6.1-3.69v7.626l-6.1 3.552v-7.488zm-3.05-19.492a2.287 2.287 0 114.574 0 2.287 2.287 0 01-4.574 0zm4.575 38.125a2.288 2.288 0 11-4.576 0 2.288 2.288 0 014.576 0zm16.775-16.775a2.288 2.288 0 110-4.576 2.288 2.288 0 010 4.576z" fill="#fff"/><path d="M23.676 16.761a.761.761 0 00-1.048-.255l-1.288.784a.763.763 0 10.792 1.302l1.288-.783a.761.761 0 00.256-1.048zm-4.914 5.755a.763.763 0 00-.762.762v2.288a.762.762 0 101.525 0v-2.288a.762.762 0 00-.763-.762z" fill="#fff"/></svg>