<svg width="54" height="46" fill="none" xmlns="http://www.w3.org/2000/svg"><path fill-rule="evenodd" clip-rule="evenodd" d="M19.498 4.685a.785.785 0 001.104-.115c1.545-1.907 3.782-3 6.136-3a7.856 7.856 0 016.189 2.993.783.783 0 001.103.128.785.785 0 00.127-1.103A9.417 9.417 0 0026.738 0c-2.83 0-5.511 1.305-7.355 3.582a.785.785 0 00.115 1.103zM30.921 7.27a.783.783 0 01-.616-.297 4.513 4.513 0 00-3.555-1.72c-1.352 0-2.637.63-3.526 1.727a.785.785 0 01-1.22-.989c1.189-1.467 2.918-2.308 4.745-2.308 1.876 0 3.62.844 4.787 2.315a.785.785 0 01-.615 1.272zm-6.139.976a2.556 2.556 0 013.97 0 9.161 9.161 0 016.994 7.24h1.757v-3.572A2.524 2.524 0 0135.77 9.52C35.77 8.13 36.9 7 38.289 7c1.39 0 2.52 1.13 2.52 2.52a2.523 2.523 0 01-1.735 2.393v4.358a.785.785 0 01-.785.785H35.9v.037l.001.068v1.982h3.4l2.43-2.47a.785.785 0 01.56-.235h6.378a2.523 2.523 0 012.393-1.734c1.39 0 2.52 1.13 2.52 2.52a2.523 2.523 0 01-2.52 2.519 2.523 2.523 0 01-2.393-1.735h-6.05l-2.43 2.47a.785.785 0 01-.56.235h-3.728v2.085h.353a2.414 2.414 0 012.411 2.411v1.032h4.174c.434 0 .785.35.785.784v1.66h2.92a2.524 2.524 0 012.423-1.829c1.39 0 2.52 1.13 2.52 2.52a2.522 2.522 0 01-2.52 2.519 2.523 2.523 0 01-2.361-1.64h-3.767a.785.785 0 01-.785-.785v-1.66h-3.389v3.714h3.58c.434 0 .785.352.785.785v2.05c0 .02-.001.039-.003.058a2.524 2.524 0 011.738 2.395c0 1.39-1.13 2.52-2.52 2.52a2.523 2.523 0 01-2.52-2.52c0-1.116.731-2.065 1.739-2.395l-.001-.006-.002-.052v-1.265h-2.796v6.863a2.414 2.414 0 01-2.411 2.412h-1.021a.785.785 0 110-1.57h1.02a.843.843 0 00.842-.842V25.21a.843.843 0 00-.841-.841H17.28a.843.843 0 00-.842.841v8.937a.785.785 0 11-1.57 0v-1.052H12.12v1.265l-.002.051v.007a2.524 2.524 0 011.737 2.395c0 1.39-1.13 2.52-2.52 2.52a2.523 2.523 0 01-2.52-2.52c0-1.116.73-2.065 1.738-2.395v-.006c-.001-.017-.003-.034-.003-.052v-2.05c0-.433.352-.785.785-.785h3.533V27.81h-3.341v1.66a.785.785 0 01-.785.785H6.976a2.524 2.524 0 01-2.361 1.64c-1.39 0-2.52-1.13-2.52-2.52a2.522 2.522 0 012.52-2.519c1.15 0 2.121.774 2.422 1.829h2.92v-1.66c0-.433.352-.784.786-.784h4.127v-1.032a2.414 2.414 0 012.41-2.411h.354v-2.085h-3.681a.784.784 0 01-.56-.235l-2.43-2.47h-6.05a2.524 2.524 0 01-2.393 1.735c-1.39 0-2.52-1.13-2.52-2.52 0-1.389 1.13-2.52 2.52-2.52 1.115 0 2.062.73 2.393 1.735h6.378c.21 0 .412.085.56.235l2.43 2.47h3.353v-2.05l.001-.037h-2.341a.785.785 0 01-.785-.785v-4.358a2.524 2.524 0 01-1.735-2.393c0-1.39 1.13-2.52 2.52-2.52 1.39 0 2.52 1.13 2.52 2.52a2.524 2.524 0 01-1.735 2.393v3.573h1.71a9.161 9.161 0 016.993-7.241zm1.642 22.735a3.064 3.064 0 012.378.759 3.055 3.055 0 011.015 2.272c0 .75-.276 1.473-.777 2.032a.36.36 0 00-.083.24v1.945c0 .592-.233 1.147-.656 1.562a2.173 2.173 0 01-1.533.627h-.041c-1.185-.022-2.15-1.025-2.15-2.236v-1.898a.364.364 0 00-.084-.242 3.06 3.06 0 01-.757-2.37 3.06 3.06 0 012.688-2.691zm.963 5.302c0-.482.172-.938.483-1.286a1.474 1.474 0 00-.115-2.088 1.48 1.48 0 00-2.091 2.087c.311.349.483.806.483 1.288v1.898c0 .361.273.66.608.666a.613.613 0 00.447-.177.616.616 0 00.185-.442v-1.946zm4.192 7.897H17.28a.843.843 0 01-.842-.842v-2.174a.785.785 0 10-1.57 0v2.174a2.414 2.414 0 002.412 2.412h14.298a.785.785 0 100-1.57zm6.709-35.61a.95.95 0 000 1.9.95.95 0 000-1.9zm-23.944.95a.95.95 0 001.9 0 .95.95 0 00-1.9 0zM1.57 17.224a.95.95 0 001.9 0 .95.95 0 00-1.9 0zm2.095 12.152a.95.95 0 001.9 0 .95.95 0 00-1.9 0zm7.671 8.387a.95.95 0 000-1.9.95.95 0 000 1.9zm21.08-14.964h1.915V17.16c0-4.17-3.393-7.563-7.564-7.563-4.17 0-7.564 3.393-7.564 7.563v5.637h1.916v-2.222a.785.785 0 011.57 0v2.222h8.157V17.16a4.083 4.083 0 00-4.079-4.078 4.07 4.07 0 00-4.073 3.884.785.785 0 01-1.568-.073 5.638 5.638 0 015.641-5.38 5.654 5.654 0 015.648 5.647v5.637zm10.78 14.014a.95.95 0 00-1.9 0 .95.95 0 001.9 0zm6.72-7.436a.95.95 0 00-1.899 0 .95.95 0 001.9 0zm.197-12.153a.95.95 0 001.9 0 .95.95 0 00-1.9 0z" fill="#E9EEF4"/></svg>