<svg width="81" height="81" fill="none" xmlns="http://www.w3.org/2000/svg"><path fill-rule="evenodd" clip-rule="evenodd" d="M71.022 0H9.037C4.054 0 0 4.054 0 9.037v61.986c0 4.983 4.054 9.037 9.037 9.037h61.985c4.983 0 9.037-4.054 9.037-9.036V9.037C80.059 4.054 76.005 0 71.022 0zm5.7 71.024c0 3.143-2.556 5.7-5.7 5.7H9.037a5.707 5.707 0 01-5.701-5.7V15.766h73.387v55.258zm0-58.594H3.337V9.043A5.712 5.712 0 019.04 3.337h61.977a5.712 5.712 0 015.705 5.706v3.387zM12.5 6.216h-.017a1.66 1.66 0 00-1.659 1.668c0 .921.755 1.668 1.676 1.668a1.668 1.668 0 000-3.336zm7.375 0h.017a1.668 1.668 0 010 3.336 1.675 1.675 0 01-1.676-1.668 1.66 1.66 0 011.659-1.668zm7.41 0h-.019a1.66 1.66 0 00-1.659 1.668c0 .921.756 1.668 1.677 1.668a1.668 1.668 0 000-3.336zm13.053 0h27.24a1.668 1.668 0 010 3.336h-27.24a1.668 1.668 0 010-3.336zm-23.84 45.34l4.881.752c.31.979.705 1.934 1.184 2.858l-2.918 3.964a1.667 1.667 0 00.164 2.168l5.169 5.17a1.666 1.666 0 002.167.164l3.953-2.906c.936.48 1.896.881 2.87 1.197l.752 4.856a1.668 1.668 0 001.649 1.413h7.323c.822 0 1.522-.6 1.648-1.413l.753-4.856a19.382 19.382 0 002.87-1.197l3.953 2.906c.664.49 1.585.417 2.167-.165l5.169-5.169a1.667 1.667 0 00.164-2.168l-2.918-3.965a18.16 18.16 0 001.184-2.857l4.88-.752a1.667 1.667 0 001.414-1.649v-7.323c0-.823-.6-1.523-1.413-1.648l-4.875-.754a19.42 19.42 0 00-1.179-2.85l2.909-3.975a1.668 1.668 0 00-.164-2.163l-5.169-5.186a1.669 1.669 0 00-2.17-.166L48.95 28.76a18.81 18.81 0 00-2.856-1.19l-.754-4.858a1.668 1.668 0 00-1.648-1.412h-7.323c-.823 0-1.522.6-1.649 1.412l-.753 4.858a18.81 18.81 0 00-2.856 1.19l-3.965-2.918a1.667 1.667 0 00-2.17.166l-5.17 5.186c-.58.582-.649 1.5-.163 2.163l2.909 3.973a19.492 19.492 0 00-1.18 2.852l-4.874.754a1.668 1.668 0 00-1.413 1.648v7.323c0 .824.6 1.523 1.413 1.649zm1.922-7.542l4.51-.697a1.667 1.667 0 001.358-1.227 16.121 16.121 0 011.675-4.048 1.668 1.668 0 00-.094-1.827l-2.692-3.677 3.148-3.159 3.671 2.703c.543.399 1.27.434 1.844.088a15.538 15.538 0 014.035-1.685 1.668 1.668 0 001.227-1.357l.696-4.492h4.465l.696 4.492c.102.656.584 1.19 1.226 1.357 1.435.376 2.792.943 4.036 1.685.576.346 1.303.31 1.844-.088l3.67-2.703 3.148 3.159-2.691 3.677a1.668 1.668 0 00-.095 1.826 16.11 16.11 0 011.676 4.05 1.667 1.667 0 001.358 1.226l4.51.697v4.462l-4.527.698a1.667 1.667 0 00-1.365 1.248 14.715 14.715 0 01-1.662 4.014 1.668 1.668 0 00.09 1.844l2.703 3.673-3.142 3.142-3.656-2.686a1.675 1.675 0 00-1.83-.097 15.984 15.984 0 01-4.063 1.692 1.669 1.669 0 00-1.23 1.36l-.696 4.492h-4.465l-.696-4.493a1.669 1.669 0 00-1.23-1.359 15.984 15.984 0 01-4.064-1.692 1.666 1.666 0 00-1.829.097l-3.656 2.687-3.142-3.143 2.703-3.673a1.665 1.665 0 00.089-1.844 14.7 14.7 0 01-1.661-4.014 1.667 1.667 0 00-1.365-1.248l-4.527-.698v-4.462zm16.274 7.662h.444v-10.86h-.444a1.668 1.668 0 010-3.337h.803v-1.617a1.668 1.668 0 013.335 0v1.617h1.111v-1.617a1.668 1.668 0 013.336 0v1.853c2.161.637 3.753 2.617 3.753 4.982a5.184 5.184 0 01-1.416 3.549 5.184 5.184 0 011.416 3.549c0 2.365-1.592 4.344-3.753 4.982v1.852a1.668 1.668 0 01-3.336 0v-1.617h-1.11v1.617a1.668 1.668 0 01-3.336 0v-1.617h-.803a1.668 1.668 0 010-3.336zm7.12-10.86h-3.34v3.762h3.34a1.883 1.883 0 001.882-1.881 1.883 1.883 0 00-1.881-1.882zm0 7.098h-3.34v3.762h3.34a1.883 1.883 0 001.882-1.881 1.883 1.883 0 00-1.881-1.881z" fill="#E9EEF4"/></svg>