<svg width="41" height="46" fill="none" xmlns="http://www.w3.org/2000/svg"><path fill-rule="evenodd" clip-rule="evenodd" d="M39.891 13.16l.034.058c.137.236.192.498.174.752l.003.114v28.613A3.105 3.105 0 0137 45.798H4.015a3.105 3.105 0 01-3.101-3.1v-28.51c0-.272.049-.534.138-.775.03-.106.07-.21.128-.31L7.543 2.065A2.538 2.538 0 019.736.798H31.28c.9 0 1.74.485 2.191 1.264l6.26 10.824c.06.087.113.178.16.274zM31.22 3.436h-9.348v8.514h14.272L31.22 3.436zm-11.986 0H9.797L4.89 11.95h14.345V3.436zm17.767 39.725a.464.464 0 00.463-.464V14.588H3.551v28.11c0 .255.208.463.464.463H37zM24.629 24.53a1.319 1.319 0 011.866 1.865l-6.822 6.822a1.315 1.315 0 01-1.865 0l-3.197-3.197a1.319 1.319 0 011.865-1.865l2.265 2.264 5.888-5.889z" fill="#E9EEF4"/></svg>