<svg width="671" height="418" fill="none" xmlns="http://www.w3.org/2000/svg"><path d="M157.894 102.514l-11.029 5.358-11.111-5.358 11.111-5.425 11.029 5.425z" fill="url(#paint0_linear_2145_42)"/><path d="M157.894 102.514v182.634l-11.029 5.425V107.872l11.029-5.358z" fill="url(#paint1_linear_2145_42)"/><path d="M146.865 107.872v182.701l-11.111-5.425V102.514l11.111 5.358z" fill="url(#paint2_linear_2145_42)"/><path d="M146.865 97.088l-11.111 5.426v182.634l11.111 5.425 11.029-5.425V102.514l-11.029-5.425z" fill="url(#paint3_linear_2145_42)"/><path d="M139.86 139.814l-7.407 3.594-7.406-3.594 7.406-3.662 7.407 3.662z" fill="url(#paint4_linear_2145_42)"/><path d="M139.86 139.814v122.14l-7.407 3.595V143.408l7.407-3.594z" fill="url(#paint5_linear_2145_42)"/><path d="M132.454 143.408v122.141l-7.407-3.595v-122.14l7.407 3.594z" fill="url(#paint6_linear_2145_42)"/><path d="M132.453 136.152l-7.406 3.662v122.14l7.406 3.595 7.407-3.595v-122.14l-7.407-3.662z" fill="url(#paint7_linear_2145_42)"/><path d="M22.477 240.185l-11.03 5.425-11.11-5.425 11.11-5.426 11.03 5.426z" fill="url(#paint8_linear_2145_42)"/><path d="M22.477 240.185v132.516l-11.03 5.426V245.61l11.03-5.425z" fill="url(#paint9_linear_2145_42)"/><path d="M11.448 245.61v132.517l-11.11-5.426V240.185l11.11 5.425z" fill="url(#paint10_linear_2145_42)"/><path d="M11.448 234.759l-11.11 5.426v132.516l11.11 5.426 11.03-5.426V240.185l-11.03-5.426z" fill="url(#paint11_linear_2145_42)"/><path d="M180.035 133.982l-6.924 3.391-7.005-3.391 7.005-3.391 6.924 3.391z" fill="url(#paint12_linear_2145_42)"/><path d="M180.035 133.981v114.681l-6.924 3.391V137.372l6.924-3.391z" fill="url(#paint13_linear_2145_42)"/><path d="M173.111 137.372v114.681l-7.005-3.391V133.981l7.005 3.391z" fill="url(#paint14_linear_2145_42)"/><path d="M173.111 130.591l-7.005 3.391v114.68l7.005 3.391 6.924-3.391v-114.68l-6.924-3.391z" fill="url(#paint15_linear_2145_42)"/><path opacity=".561" d="M183.416 18.352V286.64l145.481 70.87 144.917-70.87V18.352H183.416z" fill="url(#paint16_linear_2145_42)"/><path d="M473.814 169.45l-144.917 70.802-145.481-70.802 145.481-70.87 144.917 70.87z" fill="url(#paint17_linear_2145_42)"/><path d="M473.814 169.45v177.345l-144.917 70.869V240.252l144.917-70.802z" fill="url(#paint18_linear_2145_42)"/><path d="M328.897 240.252v177.412l-145.481-70.869V169.45l145.481 70.802z" fill="url(#paint19_linear_2145_42)"/><path d="M328.897 253.68l144.917-70.87v-1.22l-144.917 70.87v1.22z" fill="#FF65EB"/><path d="M183.416 182.811l145.481 70.869v-1.22l-145.481-70.802v1.153z" fill="#FF20CE"/><path opacity=".561" d="M317.303 74.776l5.716 34.452 6.119 2.984 6.119-2.984 5.072-34.452h-23.026z" fill="url(#paint20_linear_2145_42)"/><path d="M323.019 109.228l6.119-2.984 6.119 2.984-6.119 2.984-6.119-2.984z" fill="#A5FFFF"/><path opacity=".561" d="M192.594 135.338l5.716 34.451 6.119 2.984 6.119-2.984 4.991-34.451h-22.945z" fill="url(#paint21_linear_2145_42)"/><path opacity=".561" d="M317.303 194.679l5.716 34.451 6.119 2.984 6.119-2.984 4.991-34.451h-22.945z" fill="url(#paint22_linear_2145_42)"/><path opacity=".561" d="M444.186 135.338l5.716 34.451 6.119 2.984 6.119-2.984 4.991-34.451h-22.945z" fill="url(#paint23_linear_2145_42)"/><path d="M198.31 169.789l6.119-2.984 6.119 2.984-6.119 2.984-6.119-2.984z" fill="#A5FFFF"/><path opacity=".561" d="M444.186 135.338l5.716 34.451 6.119 2.984 6.119-2.984 4.991-34.451h-22.945z" fill="url(#paint24_linear_2145_42)"/><path d="M449.902 169.789l6.119-2.984 6.119 2.984-6.119 2.984-6.119-2.984z" fill="#A5FFFF"/><path opacity=".561" d="M317.303 194.679l5.716 34.451 6.119 2.984 6.119-2.984 5.072-34.451h-23.026z" fill="url(#paint25_linear_2145_42)"/><path d="M323.019 229.13l6.119-2.984 6.119 2.984-6.119 2.984-6.119-2.984z" fill="#A5FFFF"/><path d="M349.668 124.487c1.047-.543 2.818-.543 3.865 0l59.979 29.365c1.047.543 1.047 1.357 0 1.899l-101.361 49.304c-1.047.542-2.818.542-3.865 0l-59.979-29.365c-1.047-.543-1.047-1.357 0-1.899l101.361-49.304z" fill="url(#paint26_linear_2145_42)"/><path d="M352.244 133.981a1.01 1.01 0 01-.885 0l-4.187-2.034c-.241-.136-.241-.339 0-.475l4.187-2.034a1.01 1.01 0 01.885 0l4.187 2.034c.241.136.241.339 0 .475l-4.187 2.034zm-1.851.95c.241-.136.241-.339 0-.475l-4.187-2.034a1.01 1.01 0 00-.885 0l-4.187 2.034c-.241.136-.241.339 0 .475l4.187 2.034c.241.136.644.136.885 0l4.187-2.034zm-6.039 2.916c.242-.136.242-.339 0-.475l-4.186-2.034a1.013 1.013 0 00-.886 0l-4.186 2.034c-.242.136-.242.339 0 .475l4.186 2.035c.242.135.644.135.886 0l4.186-2.035zm24.153 0c.242-.136.242-.339 0-.475l-4.186-2.034a1.013 1.013 0 00-.886 0l-4.186 2.034c-.242.136-.242.339 0 .475l4.186 2.035c.242.135.644.135.886 0l4.186-2.035zm-20.127 3.934l4.186-2.035c.242-.136.242-.339 0-.475l-4.186-2.034a1.013 1.013 0 00-.886 0l-4.186 2.034c-.242.136-.242.339 0 .475l4.186 2.035c.242.067.644.067.886 0zm9.903-3.459a1.013 1.013 0 00-.886 0l-4.187 2.034c-.241.136-.241.339 0 .475l4.187 2.035c.242.135.644.135.886 0l4.186-2.035c.242-.136.242-.339 0-.475l-4.186-2.034zm-26.085 5.425c.241-.135.241-.339 0-.474l-4.187-2.035c-.241-.136-.644-.136-.886 0l-4.186 2.035c-.242.135-.242.339 0 .474l4.186 2.035c.242.135.645.135.886 0l4.187-2.035zm4.106 3.934l4.186-2.035c.242-.135.242-.339 0-.475l-4.186-2.034c-.242-.136-.645-.136-.886 0l-4.187 2.034c-.241.136-.241.34 0 .475l4.187 2.035c.161.068.563.068.886 0zm-10.145-1.018c.242-.135.242-.339 0-.474l-4.186-2.035a1.02 1.02 0 00-.886 0l-4.186 2.035c-.242.135-.242.339 0 .474l4.186 2.035c.242.136.644.136.886 0l4.186-2.035zm19.001 2.103c.241.135.644.135.885 0l4.187-2.035c.241-.135.241-.339 0-.474l-4.187-2.035a1.01 1.01 0 00-.885 0l-4.187 2.035c-.241.135-.241.339 0 .474l4.187 2.035zm-20.047-.678c-.242.135-.242.339 0 .474l4.186 2.035c.242.136.644.136.886 0l4.186-2.035c.242-.135.242-.339 0-.474l-4.186-2.035a1.013 1.013 0 00-.886 0l-4.186 2.035zm-4.992 1.559c.242-.135.242-.339 0-.474l-4.186-2.035a1.02 1.02 0 00-.886 0l-4.187 2.035c-.241.135-.241.339 0 .474l4.187 2.035c.242.136.644.136.886 0l4.186-2.035zm19 2.035c.242.136.644.136.886 0l4.186-2.035c.242-.135.242-.339 0-.474l-4.186-2.035a1.02 1.02 0 00-.886 0l-4.186 2.035c-.242.135-.242.339 0 .474l4.186 2.035zm33.251-.203c-.242.135-.242.339 0 .474l1.288.611c.241.135.644.135.886 0l5.072-2.442c.241-.135.241-.339 0-.475l-1.289-.61a1.01 1.01 0 00-.885 0l-5.072 2.442zm-53.298-.407c-.241.135-.241.339 0 .474l4.187 2.035c.242.136.644.136.886 0l4.186-2.035c.242-.135.242-.339 0-.474l-4.186-2.035a1.013 1.013 0 00-.886 0l-4.187 2.035zm14.975-1.018a1.018 1.018 0 00-.885 0l-4.187 2.035c-.241.136-.241.339 0 .475l4.187 2.034c.241.136.644.136.885 0l4.187-2.034c.241-.136.241-.339 0-.475l-4.187-2.035zm-21.093 3.934c-.242.135-.242.339 0 .475l4.186 2.034c.242.136.644.136.886 0l4.186-2.034c.242-.136.242-.34 0-.475l-4.186-2.035a1.02 1.02 0 00-.886 0l-4.186 2.035zm32.526.949c.241-.135.241-.339 0-.474l-4.187-2.035c-.241-.136-.644-.136-.886 0l-4.186 2.035c-.242.135-.242.339 0 .474l4.186 2.035c.242.135.645.135.886 0l4.187-2.035zm-37.518.611c.242-.136.242-.339 0-.475l-4.186-2.035a1.02 1.02 0 00-.886 0l-4.186 2.035c-.242.136-.242.339 0 .475l4.186 2.034c.242.136.644.136.966 0l4.106-2.034zm-1.046 1.424c-.242.135-.242.339 0 .475l4.186 2.034c.242.136.644.136.886 0l4.186-2.034c.242-.136.242-.34 0-.475l-4.186-2.035a1.02 1.02 0 00-.886 0l-4.186 2.035zm27.373 2.916c.241.136.644.136.885 0l4.187-2.035c.241-.135.241-.339 0-.474l-4.187-2.035a1.018 1.018 0 00-.885 0l-4.187 2.035c-.241.135-.241.339 0 .474l4.187 2.035zm-32.365-1.424c.241-.136.241-.339 0-.475l-4.187-2.034a1.01 1.01 0 00-.885 0l-4.187 2.034c-.241.136-.241.339 0 .475l4.187 2.034c.241.136.644.136.885 0l4.187-2.034zm19.966-2.509c-.241-.136-.644-.136-.966 0l-4.186 2.034c-.242.136-.242.339 0 .475l4.186 2.034c.242.136.644.136.886 0l4.186-2.034c.242-.136.242-.339 0-.475l-4.106-2.034zm-21.013 3.933c-.241.136-.241.339 0 .475l4.187 2.034c.241.136.644.136.885 0l4.187-2.034c.241-.136.241-.339 0-.475l-4.187-2.035a1.018 1.018 0 00-.885 0l-4.187 2.035zm48.226 0c-.242.136-.242.339 0 .475l4.186 2.034c.242.136.644.136.886 0l5.474-2.645c.242-.135.242-.339 0-.474l-4.186-2.035a1.013 1.013 0 00-.886 0l-5.474 2.645zm-33.251-.949c-.241-.136-.644-.136-.886 0l-4.186 2.034c-.242.136-.242.339 0 .475l4.186 2.034c.242.136.645.136.967 0l4.186-2.034c.242-.136.242-.339 0-.475l-4.267-2.034zm26.568 3.323c.242-.136.242-.339 0-.475l-4.186-2.035a1.02 1.02 0 00-.886 0l-4.186 2.035c-.242.136-.242.339 0 .475l4.186 2.034c.242.136.644.136.966 0l4.106-2.034zm-47.581.542c-.241.136-.241.339 0 .475l4.187 2.034c.241.136.644.136.885 0l4.187-2.034c.241-.136.241-.339 0-.475l-4.187-2.034a1.01 1.01 0 00-.885 0l-4.187 2.034zm-4.991 1.56c.241-.136.241-.339 0-.475l-4.187-2.034c-.241-.136-.644-.136-.886 0l-4.186 2.034c-.242.136-.242.339 0 .475l4.186 2.035c.242.135.645.135.886 0l4.187-2.035zm19.966-2.509a1.013 1.013 0 00-.886 0l-4.186 2.034c-.242.136-.242.339 0 .475l4.186 2.035c.242.135.644.135.886 0l4.186-2.035c.242-.136.242-.339 0-.475l-4.186-2.034zm-15.941 6.442l4.186-2.034c.242-.136.242-.339 0-.475l-4.186-2.034c-.242-.136-.644-.136-.966 0l-4.187 2.034c-.241.136-.241.339 0 .475l4.187 2.034c.322.136.724.136.966 0zm-10.144-.949c.241-.136.241-.339 0-.475l-4.187-2.034c-.241-.136-.644-.136-.966 0l-4.186 2.034c-.242.136-.242.339 0 .475l4.186 2.035c.242.135.644.135.886 0l4.267-2.035zm19.966-2.509a1.01 1.01 0 00-.885 0l-4.187 2.034c-.241.136-.241.339 0 .475l4.187 2.035c.241.135.644.135.885 0l4.187-2.035c.241-.136.241-.339 0-.475l-4.187-2.034zm26.649 3.323c.241-.136.241-.339 0-.475l-4.187-2.034a1.01 1.01 0 00-.885 0l-4.187 2.034c-.241.136-.241.339 0 .475l4.187 2.034c.241.136.644.136.966 0l4.106-2.034zm-47.662.542c-.241.136-.241.339 0 .475l4.187 2.035c.241.135.644.135.885 0l4.187-2.035c.241-.136.241-.339 0-.475l-4.187-2.034a1.01 1.01 0 00-.885 0l-4.187 2.034zm14.009 3.595c.241.135.644.135.885 0l4.187-2.035c.241-.135.241-.339 0-.475l-4.187-2.034a1.01 1.01 0 00-.885 0l-4.187 2.034c-.241.136-.241.34 0 .475l4.187 2.035zm-5.072-1.56c-.242-.136-.644-.136-.966 0l-4.187 2.034c-.241.136-.241.34 0 .475l4.187 2.035c.241.135.644.135.885 0l4.187-2.035c.241-.135.241-.339 0-.475l-4.106-2.034zm26.568 3.323c.241-.136.241-.339 0-.475l-4.187-2.034a1.01 1.01 0 00-.885 0l-4.187 2.034c-.241.136-.241.339 0 .475l4.187 2.035c.241.135.644.135.966 0l4.106-2.035zm-59.658.543c-.241.135-.241.339 0 .474l4.187 2.035c.241.135.644.135.885 0l8.051-3.934c.242-.135.242-.339 0-.474l-4.186-2.035a1.013 1.013 0 00-.886 0l-8.051 3.934zm26.085 3.594c.242.136.644.136.967 0l4.186-2.035c.242-.135.242-.339 0-.474l-4.186-2.035c-.242-.136-.645-.136-.886 0l-4.187 2.035c-.241.135-.241.339 0 .474l4.106 2.035zm29.467-1.221c-.242.136-.242.339 0 .475l4.186 2.034c.242.136.644.136.967 0l33.169-16.14c.242-.136.242-.339 0-.475l-4.186-2.035a1.02 1.02 0 00-.886 0l-33.25 16.141zm-49.594.611c-.241.135-.241.339 0 .474l4.187 2.035c.241.135.644.135.885 0l4.187-2.035c.241-.135.241-.339 0-.474l-4.187-2.035a1.01 1.01 0 00-.885 0l-4.187 2.035zm27.373 2.983c.242.136.644.136.886 0l4.186-2.034c.242-.136.242-.339 0-.475l-4.186-2.034c-.242-.136-.644-.136-.966 0l-4.187 2.034c-.241.136-.241.339 0 .475l4.267 2.034zm14.25-.61c.242-.135.242-.339 0-.475l-4.186-2.034a1.013 1.013 0 00-.886 0l-4.186 2.034c-.242.136-.242.34 0 .475l4.186 2.035c.242.135.644.135.966 0l4.106-2.035zm-35.585.543c-.241.135-.241.339 0 .474l4.187 2.035c.241.136.644.136.885 0l8.051-3.933c.242-.136.242-.34 0-.475l-4.186-2.035a1.02 1.02 0 00-.886 0l-8.051 3.934zm36.23 0c-.242.135-.242.339 0 .474l4.186 2.035c.242.136.644.136.886 0l5.474-2.645c.242-.136.242-.339 0-.475l-4.186-2.034a1.013 1.013 0 00-.886 0l-5.474 2.645zm-24.153 5.9c-.242.135-.242.339 0 .475l4.186 2.034c.242.136.644.136.966 0l12.399-6.036c.241-.135.241-.339 0-.474l-4.187-2.035a1.01 1.01 0 00-.885 0l-12.479 6.036zm12.076 0c-.241.135-.241.339 0 .475l4.187 2.034c.241.136.644.136.885 0l4.187-2.034c.241-.136.241-.34 0-.475l-4.187-2.035a1.018 1.018 0 00-.885 0l-4.187 2.035zm67.789-51.474c.242-.136.242-.339 0-.475l-4.186-2.034a1.013 1.013 0 00-.886 0l-8.051 3.933c-.241.136-.241.339 0 .475l4.187 2.034c.241.136.644.136.885 0l8.051-3.933zm-24.153 5.9c.242-.136.242-.339 0-.475l-4.186-2.034a1.013 1.013 0 00-.886 0l-4.186 2.034c-.242.136-.242.339 0 .475l4.186 2.035c.242.135.644.135.886 0l4.186-2.035zm4.026 3.866l4.186-2.035c.242-.135.242-.339 0-.475l-4.186-2.034a1.013 1.013 0 00-.886 0l-4.186 2.034c-.242.136-.242.34 0 .475l4.186 2.035c.242.135.644.135.886 0zm32.204-3.934c.241-.135.241-.339 0-.474l-4.187-2.035c-.241-.136-.644-.136-.886 0l-9.017 4.408c-.241.136-.241.339 0 .475l4.187 2.034c.241.136.644.136.885 0l9.018-4.408zm-23.268 5.019c.242.135.644.135.886 0l4.186-2.035c.242-.135.242-.339 0-.474l-4.186-2.035a1.013 1.013 0 00-.886 0l-4.186 2.035c-.242.135-.242.339 0 .474l4.186 2.035zm12.399.271c.241-.136.241-.339 0-.475l-4.187-2.034a1.01 1.01 0 00-.885 0l-4.187 2.034c-.241.136-.241.339 0 .475l4.187 2.035c.241.135.644.135.885 0l4.187-2.035zm-.242 1.017c-.241.136-.241.339 0 .475l4.187 2.035c.241.135.644.135.885 0l11.996-5.833c.242-.135.242-.339 0-.474l-4.186-2.035a1.013 1.013 0 00-.886 0l-11.996 5.832zm-5.877 1.967c.242-.136.242-.339 0-.475l-4.186-2.034c-.242-.136-.645-.136-.886 0l-4.187 2.034c-.241.136-.241.339 0 .475l4.187 2.035c.241.135.644.135.886 0l4.186-2.035zm11.915 1.017c-.241.136-.241.339 0 .475l1.208.61c.242.136.644.136.966 0l5.072-2.441c.242-.136.242-.339 0-.475l-1.207-.61a1.013 1.013 0 00-.886 0l-5.153 2.441zm-4.025 4.748c-.242.135-.242.339 0 .474l1.208.611c.241.135.644.135.966 0l5.072-2.442c.241-.135.241-.339 0-.474l-1.208-.611a1.018 1.018 0 00-.885 0l-5.153 2.442zm13.848-6.714c-.242.135-.242.339 0 .474l1.207.611c.242.135.644.135.966 0l5.072-2.442c.242-.135.242-.339 0-.474l-1.207-.611a1.02 1.02 0 00-.886 0l-5.152 2.442zm-12.64 2.373c.241-.135.241-.339 0-.474l-4.187-2.035c-.241-.136-.644-.136-.886 0l-4.186 2.035c-.242.135-.242.339 0 .474l4.186 2.035c.242.135.645.135.886 0l4.187-2.035zm-15.136 1.492c.241-.135.241-.339 0-.474l-4.187-2.035a1.01 1.01 0 00-.885 0l-4.187 2.035c-.241.135-.241.339 0 .474l4.187 2.035c.241.135.644.135.966 0l4.106-2.035zm-37.437.611c.241-.136.241-.339 0-.475l-4.187-2.035c-.241-.135-.644-.135-.966 0l-4.186 2.035c-.242.136-.242.339 0 .475l4.186 2.034c.242.136.644.136.886 0l4.267-2.034zm41.382 2.916c.241.135.644.135.966 0l4.106-1.967.161-.068c.241-.135.241-.339 0-.474l-4.187-2.035a1.01 1.01 0 00-.885 0l-4.187 2.035c-.241.135-.241.339 0 .474l4.026 2.035zm-27.534-2.442c-.242-.135-.645-.135-.886 0l-4.187 2.035c-.241.136-.241.339 0 .475l4.187 2.034c.241.136.644.136.886 0l4.186-2.034c.242-.136.242-.339 0-.475l-4.186-2.035zm21.496 5.358c.241.136.644.136.966 0l4.186-2.035c.242-.135.242-.339 0-.474l-4.186-2.035c-.242-.135-.644-.135-.966 0l-4.187 2.035c-.241.135-.241.339 0 .474l4.187 2.035zm7.004-2.035c-.242.136-.242.34 0 .475l4.186 2.035c.242.135.644.135.886 0l4.186-2.035c.242-.135.242-.339 0-.475l-4.186-2.034c-.242-.136-.644-.136-.966 0l-4.106 2.034zm-7.89 2.984c.241-.135.241-.339 0-.474l-4.187-2.035a1.018 1.018 0 00-.885 0l-4.187 2.035c-.241.135-.241.339 0 .474l4.187 2.035c.241.136.644.136.966 0l4.106-2.035zm-20.288 3.527c.241.136.644.136.885 0l4.187-2.035c.241-.135.241-.339 0-.474l-4.187-2.035a1.018 1.018 0 00-.885 0l-4.187 2.035c-.241.135-.241.339 0 .474l4.187 2.035zm-32.365-1.424c.241-.136.241-.339 0-.475l-4.187-2.034a1.01 1.01 0 00-.885 0l-4.187 2.034c-.241.136-.241.339 0 .475l4.187 2.034c.241.136.644.136.885 0l4.187-2.034zm26.246 4.34c.241.136.644.136.885 0l4.187-2.034c.241-.136.241-.339 0-.475l-4.187-2.035c-.241-.135-.644-.135-.966 0l-4.186 2.035c-.242.136-.242.339 0 .475l4.267 2.034zm14.25-.542c.242-.136.242-.339 0-.475l-4.186-2.035c-.242-.135-.645-.135-.886 0l-4.187 2.035c-.241.136-.241.339 0 .475l4.187 2.034c.241.136.644.136.966 0l4.106-2.034zm-20.288 3.526c.241.136.644.136.966 0l4.186-2.034c.242-.136.242-.339 0-.475l-4.186-2.035a1.02 1.02 0 00-.886 0l-4.186 2.035c-.242.136-.242.339 0 .475l4.106 2.034zm-6.039 2.916c.242.136.644.136.886 0l4.187-2.034c.241-.136.241-.339 0-.475l-4.187-2.034a1.013 1.013 0 00-.886 0l-4.186 2.034c-.242.136-.242.339 0 .475l4.186 2.034zm-32.364-1.424c.241-.135.241-.339 0-.475l-4.187-2.034c-.241-.136-.644-.136-.886 0l-4.186 2.034c-.242.136-.242.34 0 .475l4.186 2.035c.242.135.645.135.967 0l4.106-2.035zm46.615.882c.241-.136.241-.339 0-.475l-4.187-2.034c-.241-.136-.644-.136-.966 0l-4.187 2.034c-.241.136-.241.339 0 .475l4.187 2.034c.242.136.644.136.966 0l4.187-2.034zm-42.59 3.052l4.187-2.035c.241-.136.241-.339 0-.475l-4.187-2.034c-.241-.136-.644-.136-.886 0l-4.186 2.034c-.242.136-.242.339 0 .475l4.186 2.035c.242.067.645.067.886 0zm22.221.474c.241.136.644.136.885 0l4.187-2.034c.241-.136.241-.339 0-.475l-4.187-2.034a1.01 1.01 0 00-.885 0l-4.187 2.034c-.241.136-.241.339 0 .475l4.187 2.034zm-29.145 2.442c.242.135.644.135.886 0l4.186-2.035c.242-.135.242-.339 0-.474l-4.186-2.035a1.013 1.013 0 00-.886 0l-4.186 2.035c-.242.135-.242.339 0 .474l4.186 2.035zm28.259-1.56c.242-.136.242-.339 0-.475l-4.186-2.034a1.013 1.013 0 00-.886 0l-4.186 2.034c-.242.136-.242.339 0 .475l4.186 2.035c.242.135.644.135.886 0l4.186-2.035zm3.945 3.527c.242.135.644.135.966 0l4.187-2.035c.241-.136.241-.339 0-.475l-4.187-2.034a1.01 1.01 0 00-.885 0l-4.187 2.034c-.241.136-.241.339 0 .475l4.106 2.035zm-30.433 4.408c-.241.135-.241.339 0 .474l4.187 2.035c.241.136.644.136.886 0l9.258-4.544c.242-.135.242-.339 0-.475l-4.186-2.034a1.013 1.013 0 00-.886 0l-9.259 4.544zm24.153 0c-.241.135-.241.339 0 .474l4.187 2.035c.241.136.644.136.966 0l4.186-2.035c.242-.135.242-.339 0-.474l-4.186-2.035a1.02 1.02 0 00-.886 0l-4.267 2.035zm17.149-1.153c-.564.271-.564.678 0 .949l12.559 6.172c.564.271 1.369.271 1.933 0l22.623-10.987c.563-.271.563-.678 0-.949l-12.56-6.172c-.563-.271-1.368-.271-1.932 0l-22.623 10.987zm-29.306 7.053c-.241.135-.241.339 0 .475l4.187 2.034c.241.136.644.136.885 0l4.187-2.034c.242-.136.242-.34 0-.475l-4.187-2.035a1.018 1.018 0 00-.885 0l-4.187 2.035z" fill="#193164"/><path d="M349.668 63.858c1.61-.746 2.898-.136 2.898 1.424l.161 59.408-105.225 51.203-.161-59.409c0-1.559 1.288-3.458 2.898-4.204l99.429-48.422z" fill="#1A6CBE"/><path d="M414.317 154.802c0 .339-.241.678-.805.949l-101.361 49.304c-1.047.543-2.818.543-3.865 0l-59.979-29.365c-.081 0-.081-.068-.161-.068-.081-.068-.161-.068-.161-.136l-.242-.203v-.068c-.08-.068-.08-.136-.161-.203 0-.068-.08-.136-.08-.204v3.934c0 .067.08.067.08.135 0 0 0 .068.081.068v.136c.08.067.08.135.161.135.08.068.161.068.161.136.08 0 .08.068.161.068l59.979 29.365c1.047.543 2.818.543 3.865 0l101.361-49.304c.564-.271.805-.61.805-.949l.161-3.73z" fill="#1A6CBE"/><path d="M347.736 69.419l.161 52.83-95.565 46.523-.161-52.83 95.565-46.523z" fill="#102465"/><path d="M347.736 71.114V69.42l-95.565 46.523v1.628l95.565-46.456z" fill="#00154F"/><path d="M350.312 63.586c.161-.067.322-.067.483-.067h.564c.161 0 .322.067.402.135l-2.334-1.153c-.081 0-.081-.068-.161-.068-.081 0-.081 0-.161-.067h-.645c-.08 0-.161 0-.241.067h-.161c-.081 0-.081 0-.161.068-.161.068-.242.136-.403.204l-99.429 48.354a2.478 2.478 0 00-.563.339l-.161.136-.242.203-.081.068-.08.068-.081.068a.954.954 0 00-.241.271l-.081.068v.068l-.08.067c-.081.068-.081.136-.161.204-.081.068-.081.135-.161.203 0 .068-.081.136-.081.204-.08.068-.08.135-.161.203 0 .068-.08.136-.08.204 0 .067-.081.135-.081.203s-.08.136-.08.204c0 .067 0 .067-.081.135v.136c0 .068-.08.203-.08.271v.814l.161 57.713c0 1.017.644 1.967 1.691 2.442l.644.339-.161-59.409c0-.203 0-.339.08-.543v-.067c0-.204.081-.339.161-.543v-.068c.081-.203.161-.407.242-.542.08-.204.241-.407.322-.543.161-.203.241-.339.402-.542v-.068c.161-.136.242-.271.403-.407l.08-.068c.081-.136.242-.203.403-.271l.161-.136c.161-.135.322-.203.563-.339l99.43-48.354c.161-.068.322-.136.563-.204h-.322z" fill="url(#paint27_linear_2145_42)"/><path d="M402.724 177.25c-3.301-1.628-8.615-1.628-11.916 0-3.3 1.627-3.22 4.204 0 5.832 3.301 1.628 8.615 1.628 11.916 0s3.301-4.205 0-5.832z" fill="#1A9BDB"/><path d="M393.787 181.997s-2.979-1.628-3.059-2.035c-.081-.407.644-.814 1.127-.814s2.576.136 2.576.136l.644.678c.081.068 1.289 2.442-1.288 2.035zm6.522-2.035s-2.979-1.627-3.06-2.034c-.08-.407.644-.814 1.127-.814s2.577.136 2.577.136l.644.678c.08 0 1.288 2.441-1.288 2.034z" fill="#103450"/><path d="M392.741 159.21l-.081 20.685s1.369.678 2.898-.068c0 0 2.738-17.836 2.818-18.243.081-.407.403 16.276.403 16.276s1.691.814 3.059-.271l1.53-19.735-10.627 1.356z" fill="#103450"/><path d="M401.919 151.614l.161 3.662s3.381-1.492 3.301-3.73c0-.474-1.127-3.662-1.369-4.476-1.127.543-1.208 3.798-2.093 4.544z" fill="#FFC6A0"/><path d="M395.236 143.747s-1.288.204-2.898 1.357l.403 14.106s2.093 1.288 6.44.339c3.543-.746 4.428-2.035 4.428-2.035s-.08-6.51-.402-9.359c-.322-2.848-1.288-5.018-1.288-5.018-.805-.204-2.496-.136-2.496-.136l-4.187.746z" fill="#FDF7FB"/><path d="M399.101 142.934l.08-2.781s.805-.068.644-.814c-.161-.746-.966-.271-1.127-.068 0 0-.161-2.645-1.851-2.848-1.611-.271-2.335-.068-2.335.61-.081.679-.081 3.052 0 3.934.08.881 0 1.356 1.53 1.288l.161.95s.644.542 2.817.135l.081-.406z" fill="#FFC6A0"/><path d="M395.236 143.747c0-.542.081-.814 1.611-.949 1.449-.136 2.656-.475 2.817 0 .161.475-.161.746-1.61.881-1.529.068-2.818.068-2.818.068z" fill="#fff"/><path d="M397.169 139.407c.08-.203 0-.475-.322-.543-.242-.067-.403.068-.564.204-.241.271-.402.678-.563.949-.161-.135-.323-.203-.484-.339v-.881c-.161-.407-.644-.475-.885-.814-.322-.407-.161-1.017.161-1.424.322-.407.886-.679 1.449-.882 1.932-.543 4.911.678 4.348 2.645-.322 1.153-.806 2.238-1.128 3.391-.08.135-.483.203-.644.135a1.707 1.707 0 01-.483-.271 6.094 6.094 0 01-1.61-1.763c.081.271.644-.271.725-.407z" fill="#103450"/><path d="M392.419 159.82c0 .204.161.339.402.339.242 0 .403-.203.483-.407.081-.135.161-.203.242-.339.08-.068.08-.203.08-.271s-.08-.204-.08-.271c0-.204.241-.339.322-.543.08-.203-.081-.407-.322-.61-.161-.136-.242-.272-.403-.339a.714.714 0 00-1.046.813c.08.204.241.475.322.679 0 .339-.081.678 0 .949z" fill="#FFC6A0"/><path d="M392.338 158.735s-3.623-4.679-3.784-5.764c-.08-1.086 2.979-6.579 2.979-6.579l2.415 2.238-2.737 4.069 1.53 4.544-.403 1.492z" fill="#FFC6A0"/><path d="M393.224 151.207c.322-.61.483-1.22.563-1.695.322-2.306-1.529-4.34-1.529-4.34-.725.271-1.772 2.17-2.738 4.272 1.288.61 2.496 1.221 3.704 1.763zm11.432-3.458c-.886-2.238-2.174-4.476-2.737-4.68l.241 5.9c.805-.407 1.691-.813 2.496-1.22z" fill="#FDF7FB"/><path d="M264.248 117.298c-1.53.746-2.818 2.577-2.818 4.137 0 1.492 1.288 2.102 2.818 1.356 1.529-.746 2.817-2.644 2.817-4.136 0-1.56-1.288-2.171-2.817-1.357z" fill="#00EDF9"/><path d="M298.223 101.497l-28.098 13.631c-.322.136-.644.543-.644.882v.067c0 .34.241.475.644.272l28.098-13.632c.322-.135.644-.542.644-.881v-.068c-.081-.339-.322-.475-.644-.271zm-21.174 13.428l-6.924 3.39c-.322.136-.644.543-.644.882v.068c0 .339.241.475.644.271l6.924-3.391c.322-.135.644-.542.644-.881v-.068c0-.339-.242-.475-.644-.271zm21.093-10.241l-18.517 9.02c-.322.203-.644.61-.644.949 0 .339.322.475.644.339l18.517-9.019c.322-.204.644-.611.644-.95 0-.407-.241-.542-.644-.339zm-24.233 14.92l-3.704 1.831c-.402.204-.644.61-.644.95 0 .339.322.474.644.339l3.704-1.831c.322-.204.644-.611.644-.95 0-.339-.242-.542-.644-.339z" fill="#FDF7FB"/><path d="M264.248 129.709c-1.53.746-2.818 2.577-2.818 4.137 0 1.492 1.288 2.102 2.818 1.356 1.529-.746 2.817-2.577 2.817-4.137 0-1.492-1.207-2.102-2.817-1.356z" fill="#00EDF9"/><path d="M298.223 113.907l-28.098 13.632c-.322.135-.644.542-.644.881v.068c0 .339.241.475.644.271l28.098-13.631c.322-.136.644-.542.644-.882v-.067c0-.272-.322-.407-.644-.272zm-21.094 13.428l-6.924 3.391c-.322.136-.644.543-.644.882v.068c0 .339.242.474.644.271l6.924-3.391c.322-.136.644-.543.644-.882v-.067c0-.272-.322-.407-.644-.272zm21.094-10.24l-18.518 9.02c-.322.203-.644.61-.644.949 0 .339.322.475.644.339l18.518-9.02c.322-.203.644-.61.644-.949 0-.339-.322-.475-.644-.339zm-24.234 14.988l-3.703 1.831c-.403.203-.644.61-.644.949 0 .339.322.475.644.339l3.703-1.831c.322-.203.644-.61.644-.949 0-.407-.322-.543-.644-.339z" fill="#FDF7FB"/><path d="M264.328 142.188c-1.53.746-2.818 2.577-2.818 4.136 0 1.492 1.288 2.103 2.818 1.357 1.53-.746 2.818-2.577 2.818-4.137 0-1.56-1.288-2.102-2.818-1.356z" fill="#00EDF9"/><path d="M298.303 126.386l-28.098 13.631c-.322.136-.644.543-.644.882v.068c0 .339.242.474.644.271l28.098-13.632c.322-.135.644-.542.644-.881v-.068c-.08-.339-.322-.475-.644-.271zm-21.093 13.428l-6.924 3.391c-.322.135-.644.542-.644.881v.068c0 .339.241.475.644.271l6.924-3.391c.322-.135.644-.542.644-.881v-.068c-.081-.339-.322-.475-.644-.271zm21.013-10.241l-18.518 9.02c-.322.203-.644.61-.644.949 0 .34.322.475.644.34l18.518-9.02c.322-.204.644-.611.644-.95 0-.407-.242-.542-.644-.339zm-24.234 14.92l-3.703 1.831c-.403.204-.644.611-.644.95 0 .339.322.475.644.339l3.703-1.831c.322-.204.644-.611.644-.95 0-.339-.241-.474-.644-.339z" fill="#FDF7FB"/><path d="M323.825 89.018v5.086c6.36-3.12 11.512-.61 11.593 5.561l5.233-2.577c0-8.952-7.568-12.614-16.826-8.07z" fill="#00EDF9"/><path d="M323.825 89.018c-9.259 4.476-16.746 15.463-16.746 24.415 0 4.476 1.932 7.663 4.991 9.087l3.704-5.425c-2.094-1.018-3.382-3.188-3.382-6.24 0-6.171 5.153-13.63 11.513-16.75l-.08-5.087z" fill="#FDF7FB"/><path d="M340.651 97.088l-5.233 2.578c0 6.171-5.153 13.699-11.513 16.751-3.22 1.559-6.038 1.695-8.131.678l-3.704 5.425c3.06 1.492 7.246 1.221 11.916-1.017 9.258-4.544 16.746-15.463 16.665-24.415z" fill="#FF20CE"/><path d="M298.625 138.864l-30.513 14.853c-.322.135-.644.542-.644.881v.068c0 .339.241.475.644.271l30.513-14.852c.322-.136.644-.542.644-.882v-.067c0-.339-.322-.475-.644-.272z" fill="#FDF7FB"/><path d="M263.281 156.022l-1.207.543c-.322.136-.644.543-.644.882v.067c0 .34.241.475.644.272l1.207-.543c.322-.135.645-.542.645-.881v-.068c0-.272-.323-.407-.645-.272z" fill="#FF20CE"/><path d="M339.202 119.061l-30.513 14.853c-.322.135-.644.542-.644.881v.068c0 .339.241.475.644.271l30.513-14.852c.322-.136.644-.542.644-.882v-.067c0-.272-.242-.407-.644-.272z" fill="#FDF7FB"/><path d="M303.858 136.287l-1.127.543c-.322.135-.644.542-.644.881v.068c0 .339.242.475.644.272l1.127-.543c.322-.136.644-.543.644-.882v-.067c0-.34-.241-.475-.644-.272z" fill="#FF20CE"/><path opacity=".6" d="M264.248 67.588l3.864-3.73v-.272c0-1.22.966-2.645 2.254-3.255 1.208-.61 2.254-.136 2.254 1.085 0 1.22-.966 2.645-2.254 3.255-.644.34-1.207.34-1.61.136l-3.864 3.73v.271c0 1.221-.967 2.645-2.255 3.255a1.466 1.466 0 01-.724.204l-5.153 9.291c.242.203.403.61.403 1.085 0 1.22-.966 2.645-2.255 3.255-1.207.61-2.254.136-2.254-1.085 0-.339.081-.746.242-1.153l-4.831-2.441c-.322.271-.644.543-.966.678-.322.136-.644.271-.966.271l-4.75 7.121c.161.204.241.543.241.882 0 1.22-.966 2.645-2.254 3.255-1.208.61-2.254.136-2.254-1.085 0-1.22.966-2.645 2.254-3.255.322-.204.644-.271.966-.271l4.75-7.121c-.161-.204-.241-.543-.241-.882 0-1.22.966-2.645 2.254-3.255 1.288-.61 2.254-.136 2.254 1.085 0 .339-.08.746-.241 1.153l4.83 2.441c.322-.271.644-.542.966-.678a1.47 1.47 0 01.725-.203l5.153-9.291c-.242-.204-.403-.61-.403-1.085 0-1.221.966-2.645 2.254-3.256.644-.339 1.208-.407 1.611-.135zm11.995-14.785l-42.75 20.82c-.564.272-1.047.95-1.047 1.56l.081 25.161c0 .542.483.813 1.046.474l42.751-20.82c.564-.271 1.047-.95 1.047-1.56l-.081-25.16c0-.475-.483-.746-1.047-.475z" fill="#00EDF9"/><path d="M270.366 60.263c-1.207.61-2.254 2.102-2.254 3.255v.272l-3.864 3.73c-.403-.204-.967-.204-1.611.135-1.207.61-2.254 2.103-2.254 3.256 0 .474.161.813.403 1.085l-5.153 9.29c-.241.069-.483.136-.725.204-.322.204-.644.407-.966.678l-4.83-2.441c.161-.407.241-.746.241-1.153 0-1.22-1.046-1.695-2.254-1.085-1.208.61-2.254 2.102-2.254 3.255 0 .34.08.678.241.882l-4.75 7.12c-.322 0-.644.069-.966.272-1.208.61-2.254 2.102-2.254 3.255 0 1.221 1.046 1.696 2.254 1.085 1.208-.61 2.254-2.102 2.254-3.255 0-.339-.08-.678-.241-.881l4.75-7.121c.322 0 .644-.068.966-.272.322-.203.644-.407.966-.678l4.831 2.442c-.161.406-.242.746-.242 1.153 0 1.22 1.047 1.695 2.254 1.085 1.208-.61 2.255-2.103 2.255-3.256a1.55 1.55 0 00-.403-1.085l5.153-9.29c.241-.069.483-.136.724-.204 1.208-.61 2.255-2.103 2.255-3.256v-.27l3.864-3.73c.403.203.966.203 1.61-.136 1.208-.61 2.255-2.103 2.255-3.256 0-1.22-1.047-1.695-2.255-1.085z" fill="#A5FFFF"/><path opacity=".6" d="M218.035 123.877c-.161.068-.322 0-.322-.136 0-.203.161-.407.322-.475l1.449-.678c.161-.068.322 0 .322.136a.564.564 0 01-.322.475l-1.449.678zm2.898-1.357c-.161.068-.322 0-.322-.135 0-.204.161-.407.322-.475l1.45-.678c.161-.068.322 0 .322.135a.563.563 0 01-.322.475l-1.45.678zm-2.898-.881c-.161.068-.322 0-.322-.136 0-.203.161-.407.322-.475l12.399-6.035c.161-.068.322 0 .322.135a.563.563 0 01-.322.475l-12.399 6.036zm0-2.306c-.161.068-.322 0-.322-.136 0-.203.161-.407.322-.474l6.924-3.391c.161-.068.322 0 .322.135a.563.563 0 01-.322.475l-6.924 3.391zm8.373-4.069c-.161.068-.322 0-.322-.136 0-.203.161-.407.322-.475l.886-.406c.161-.068.322 0 .322.135a.563.563 0 01-.322.475l-.886.407zm2.415-1.153c-.161.068-.322 0-.322-.136 0-.203.161-.407.322-.474l5.636-2.781c.161-.068.322 0 .322.136a.561.561 0 01-.322.474l-5.636 2.781zm-10.788 2.916c-.161.068-.322 0-.322-.136 0-.203.161-.406.322-.474l11.835-5.765c.161-.068.322 0 .322.136a.564.564 0 01-.322.475l-11.835 5.764zm13.284-6.443c-.161.068-.322 0-.322-.135 0-.204.161-.407.322-.475l3.14-1.56c.161-.068.322 0 .322.136a.564.564 0 01-.322.475l-3.14 1.559zm-17.631 9.427c-.564.271-.967.068-.967-.475 0-.542.403-1.153.967-1.424.563-.271.966-.068.966.475 0 .542-.483 1.153-.966 1.424zm22.784-14.716l-25.28 12.275c-.403.203-.805.678-.805 1.085v10.376c0 .407.322.61.805.339l25.28-12.275c.402-.204.805-.678.805-1.085v-10.376c-.081-.407-.403-.543-.805-.339z" fill="#00EDF9"/><path d="M229.789 110.652l-11.834 5.765c-.161.067-.322.339-.322.474 0 .204.161.272.322.136l11.834-5.765c.161-.067.322-.339.322-.474.081-.136-.08-.204-.322-.136zm-4.83 4.612l-6.924 3.391c-.161.068-.322.339-.322.474 0 .204.161.272.322.136l6.924-3.391c.161-.068.322-.339.322-.475 0-.135-.081-.203-.322-.135zm5.475-.339l-12.399 6.035c-.161.068-.322.339-.322.475 0 .204.161.271.322.136l12.399-6.036c.161-.068.322-.339.322-.475 0-.135-.161-.203-.322-.135zm-10.95 7.663l-1.449.678c-.161.068-.322.339-.322.475 0 .203.161.271.322.136l1.449-.679c.161-.067.322-.339.322-.474 0-.204-.161-.272-.322-.136zm7.81-8.409l-.886.406c-.161.068-.322.34-.322.475 0 .204.161.271.322.136l.886-.407c.161-.068.322-.339.322-.475 0-.135-.161-.203-.322-.135zm7.165-3.527l-5.636 2.781c-.161.067-.322.339-.322.474 0 .204.161.272.322.136l5.636-2.781c.161-.067.322-.339.322-.474 0-.136-.161-.204-.322-.136zm0-2.238l-3.14 1.56c-.161.068-.322.339-.322.475 0 .203.161.271.322.135l3.14-1.56c.161-.067.322-.339.322-.474 0-.204-.161-.272-.322-.136zm-20.771 9.698c-.564.271-.967.882-.967 1.424 0 .543.483.746.967.475.563-.271.966-.882.966-1.424 0-.543-.483-.746-.966-.475zm8.614 3.052l-1.449.678c-.161.068-.322.339-.322.475 0 .203.161.271.322.135l1.449-.678c.161-.068.322-.339.322-.475.081-.135-.08-.203-.322-.135z" fill="#A5FFFF"/><path d="M310.943 290.302v-25.364l-56.92-27.67v25.296l56.92 27.738z" fill="url(#paint28_linear_2145_42)"/><path d="M254.184 237.336l-.161.068v25.161l26.085-12.682-25.924-12.547z" fill="url(#paint29_linear_2145_42)"/><path d="M310.943 328.009v-25.296l-56.92-27.738v25.364l56.92 27.67z" fill="url(#paint30_linear_2145_42)"/><path d="M254.184 275.043l-.161.068v25.228l26.085-12.682-25.924-12.614z" fill="url(#paint31_linear_2145_42)"/><path d="M310.943 365.784V340.42l-56.92-27.67v25.296l56.92 27.738z" fill="url(#paint32_linear_2145_42)"/><path d="M254.184 312.818l-.161.067v25.161l26.085-12.682-25.924-12.546z" fill="url(#paint33_linear_2145_42)"/><path opacity=".561" d="M440.402 100.208l-41.06-19.939-.08 20.414 41.06 19.938.08-20.413zm.483 22.99l-25.521-12.41v7.595l25.441 12.411.08-7.596zm-6.762-40.758l-7.89-3.866v7.596l7.809 3.797.081-7.527zm-56.518-19.6s2.898-9.359 7.085-7.324c4.186 2.034 4.991 9.97 8.212 11.529 3.301 1.56 3.462-3.12 5.474-2.17 2.013.95 2.013 6.171 4.106 7.189 2.094 1.017 3.623-3.188 7.005-1.56 4.267 2.034 6.682 11.054 6.682 11.054L377.605 62.84zm41.462 2.51l-44.119-21.5-.08 22.177 44.119 21.498.08-22.176z" fill="#A5FFFF"/><path d="M384.69 55.516c-4.187-2.035-7.085 7.324-7.085 7.324l38.564 18.786s-2.415-9.02-6.682-11.055c-3.462-1.695-4.911 2.578-7.005 1.56-2.093-1.017-2.093-6.171-4.106-7.188-2.012-.95-2.173 3.73-5.474 2.17-3.221-1.628-4.106-9.63-8.212-11.597z" fill="#B4FFFF"/><path opacity=".561" d="M383.563 91.799V84.61l3.22 3.323 3.22 3.323-3.22.204-3.22.339zm2.576-12.072c-5.555-2.713-10.064-.543-10.064 4.815 0 5.358 4.428 11.936 9.983 14.58 5.556 2.714 10.064.543 10.064-4.814.081-5.358-4.428-11.868-9.983-14.581z" fill="#A5FFFF"/><path opacity=".808" d="M383.563 84.678v7.121l3.22-.272 3.14-.203-3.14-3.323-3.22-3.323z" fill="#B8FFFF"/><path opacity=".561" d="M375.27 105.362c-1.208-.61-2.254-2.102-2.254-3.255 0-1.221 1.046-1.695 2.254-1.085 1.208.61 2.254 2.102 2.254 3.255 0 1.221-1.046 1.696-2.254 1.085zm15.699-1.22l-25.118-12.208-.081 15.395 25.119 12.207-25.119-12.207v-2.374l4.67-2.238 4.75 6.918 9.58-4.544 6.199 9.088v-10.037z" fill="#A5FFFF"/><path d="M384.69 105.023l-9.5 4.612-4.75-6.918-4.67 2.238v2.374l25.119 12.275v-5.493l-6.199-9.088z" fill="#B4FFFF"/><path d="M375.27 101.022c-1.208-.611-2.254-.136-2.254 1.085s.966 2.645 2.254 3.255c1.208.611 2.254.136 2.254-1.085s-1.046-2.645-2.254-3.255z" fill="#B4FFFF"/><path d="M116.11 172.706l-40.335 19.667-40.416-19.667 40.416-19.736 40.335 19.736z" fill="url(#paint34_linear_2145_42)"/><path d="M116.11 172.705v179.176l-40.335 19.667V192.373l40.335-19.668z" fill="url(#paint35_linear_2145_42)"/><path d="M75.775 192.373v179.175l-40.416-19.667V172.705l40.416 19.668z" fill="url(#paint36_linear_2145_42)"/><path d="M75.775 196.577l40.335-19.667v-.814l-40.335 19.668v.813z" fill="#FF65EB"/><path d="M35.359 176.91l40.416 19.667v-.813l-40.416-19.668v.814z" fill="#FF20CE"/><path opacity=".561" d="M38.74 90.442l13.848 82.263 23.187 11.258 23.106-11.258 13.848-82.263H38.74z" fill="url(#paint37_linear_2145_42)"/><path d="M98.881 172.706l-23.106 11.257-23.187-11.257 23.187-11.326 23.106 11.326z" fill="#A5FFFF"/><path d="M102.182 117.298l-.483.204c-.322.203-.725.339-1.047.542a1.757 1.757 0 00-.483.271c-.402.204-.805.407-1.288.543-.08.068-.242.068-.322.136-.564.203-1.047.474-1.61.678-.161.068-.242.135-.403.203-.402.136-.805.339-1.288.475-.16.068-.402.136-.563.203-.403.136-.806.34-1.208.475l-.483.204c-.564.203-1.127.407-1.771.61-.08 0-.161.068-.161.068a14.63 14.63 0 01-1.61.475 1.73 1.73 0 01-.564.135 9.004 9.004 0 01-1.288.339 1.707 1.707 0 01-.564.136c-.644.203-1.369.339-2.093.542-.08 0-.161 0-.242.068l-1.932.407c-.16.068-.402.068-.563.136-.644.135-1.37.271-2.013.407h-.08c-.725.135-1.45.271-2.175.339-.16 0-.322.068-.563.068-.805.135-1.69.271-2.496.339h-.16c-.806.068-1.611.203-2.416.271-.161 0-.322 0-.483.068-.725.068-1.369.135-2.093.135h-.08c-.645.068-1.37.068-2.014.068h-5.796c-.322 0-.564 0-.886-.068-.322 0-.725-.067-1.047-.067-.322 0-.563-.068-.885-.068-.322 0-.725-.068-1.047-.068-.322 0-.563-.068-.885-.068-.322-.068-.725-.068-1.047-.135-.242 0-.564-.068-.805-.068-.403-.068-.805-.136-1.208-.136-.241 0-.483-.068-.724-.068a13.269 13.269 0 01-1.61-.271c-.162 0-.242-.068-.403-.068-1.69-2.238-2.415-4.476-2.415-6.646v5.493c0 2.17.724 4.408 2.415 6.646h.08c.08 0 .242 0 .322.068.564.068 1.047.204 1.61.272.242 0 .484.067.725.067.403.068.805.136 1.208.136h.16c.242 0 .403.068.645.068.322.068.725.068 1.047.135.322 0 .563.068.885.068.322 0 .725.068 1.047.068h.805c.322 0 .724.068 1.046.068.323 0 .564 0 .886.068h5.877c.644 0 1.369-.068 2.013-.068h.08c.725-.068 1.37-.068 2.094-.136h.483c.805-.068 1.61-.135 2.415-.271h.161c.886-.068 1.69-.203 2.496-.339.08 0 .161 0 .241-.068.081 0 .161 0 .242-.068.725-.135 1.45-.203 2.174-.339h.08a82.83 82.83 0 002.013-.407c.161-.068.403-.068.564-.135l1.932-.407c.08 0 .16 0 .241-.068.725-.136 1.369-.339 2.094-.543.08 0 .16-.067.241-.067.08 0 .242-.068.322-.068a8.874 8.874 0 011.288-.339c.161-.068.403-.136.564-.136.564-.136 1.046-.339 1.61-.475.08 0 .161-.068.161-.068.564-.203 1.208-.406 1.771-.61l.483-.203c.403-.136.805-.272 1.208-.475.161-.068.402-.136.564-.204.402-.135.805-.339 1.288-.474.16-.068.322-.136.402-.204.564-.203 1.047-.474 1.61-.678.081-.068.242-.068.323-.136.402-.203.805-.406 1.288-.542.161-.068.322-.136.483-.271.322-.204.724-.339 1.046-.543.081-.068.242-.068.322-.136.081 0 .081-.067.161-.067.483-.272.967-.543 1.45-.746v-5.494c-.322.272-.806.543-1.369.814z" fill="#102465"/><path d="M103.712 116.552c-13.043 7.121-32.607 11.801-52.17 8.342-7.085-9.562 2.415-19.125 16.906-25.5l22.382 6.24 12.882 10.918z" fill="#00EDF9"/><path d="M99.767 116.281c-6.2 3.187-13.365 5.561-20.772 6.85-8.453 1.559-16.907 1.695-24.958.474-2.576-3.933-2.254-8.002.805-12.207 2.738-3.662 7.568-7.121 14.009-10.173l19.564 5.494 11.352 9.562z" fill="#1A6CBE"/><path d="M84.067 114.45l.08 2.373H64.585v-6.307h4.75l.08 3.934h14.653z" fill="#FDF7FB"/><path d="M60.398 204.851l-11.352-5.493v104.915l11.352 5.493V204.851z" fill="url(#paint38_linear_2145_42)"/><path d="M49.046 304.273l11.352 5.493v-10.987l-11.352 5.494z" fill="url(#paint39_linear_2145_42)"/><path d="M75.775 192.373l-40.416-19.667v179.175l40.416 19.667 40.335-19.667V172.706l-40.335 19.667z" fill="url(#paint40_linear_2145_42)"/><path d="M525.259 90.51l-21.335 10.444-21.415-10.444 21.415-10.376 21.335 10.376z" fill="url(#paint41_linear_2145_42)"/><path d="M525.259 90.51v158.83l-21.335 10.444v-158.83l21.335-10.444z" fill="url(#paint42_linear_2145_42)"/><path d="M503.924 100.954v158.83l-21.415-10.444V90.51l21.415 10.444z" fill="url(#paint43_linear_2145_42)"/><path d="M503.924 103.192l21.335-10.444v-.407l-21.335 10.444v.407z" fill="#FF65EB"/><path d="M482.509 92.748l21.415 10.444v-.407l-21.415-10.444v.407z" fill="#FF20CE"/><path opacity=".561" d="M484.361 47.039l7.326 43.471 12.237 6.036 12.238-6.036 7.326-43.471h-39.127z" fill="url(#paint44_linear_2145_42)"/><path d="M516.162 90.51l-12.238 6.036-12.237-6.036 12.237-5.968 12.238 5.968z" fill="#A5FFFF"/><path d="M517.933 61.213c-.081.068-.161.068-.242.135-.161.068-.402.204-.563.272-.081.068-.161.068-.242.135a2.603 2.603 0 01-.644.272c-.08 0-.08.067-.161.067a3.256 3.256 0 01-.885.34c-.081 0-.161.067-.242.067-.241.068-.402.204-.644.272-.08.067-.161.067-.322.135a2.595 2.595 0 00-.644.271c-.081 0-.161.068-.242.068-.322.136-.644.204-.966.34h-.08c-.242.067-.564.203-.886.27-.08 0-.241.069-.322.069l-.724.203c-.081 0-.242.068-.322.068-.323.068-.725.203-1.128.271h-.08c-.322.068-.644.136-1.047.203-.08 0-.161.068-.322.068-.322.068-.724.136-1.046.204h-.081c-.402.068-.805.135-1.127.203-.081 0-.161 0-.322.068-.403.068-.886.136-1.369.204h-.08c-.403.067-.886.067-1.288.135h-.242c-.322 0-.725.068-1.127.068-.322 0-.725.068-1.047.068h-4.589c-.161 0-.402 0-.563-.068-.161 0-.322 0-.483-.068-.161 0-.403-.068-.564-.068-.161 0-.322 0-.402-.067-.242 0-.403-.068-.645-.068-.161 0-.241 0-.402-.068-.242-.068-.564-.068-.805-.136h-.161c-.886-1.153-1.288-2.373-1.288-3.526v2.916c0 1.153.402 2.373 1.288 3.526h.161c.241.068.563.068.805.136.161 0 .241 0 .402.068.242 0 .403.068.645.068h.08c.081 0 .242 0 .322.067.161 0 .403.068.564.068.161 0 .322 0 .483.068.161 0 .402 0 .563.068h4.509c.322 0 .724 0 1.046-.068.403 0 .725-.068 1.128-.068h.241c.403-.067.886-.067 1.288-.135h.081c.483-.068.885-.136 1.368-.204h.322c.403-.068.806-.135 1.128-.203h.08c.403-.068.725-.136 1.047-.204.08 0 .161-.067.322-.067.322-.068.644-.136 1.046-.204h.081c.402-.068.724-.203 1.127-.271h.081c.08 0 .16-.068.16-.068l.725-.204c.081 0 .242-.067.322-.067.322-.068.564-.204.886-.272h.08c.322-.135.644-.203.966-.339.081 0 .161-.067.242-.067.241-.068.402-.136.644-.272.081-.068.161-.068.322-.135.242-.068.483-.204.644-.272.081 0 .161-.067.242-.067.322-.136.563-.272.885-.34.081 0 .081-.067.161-.067.242-.068.483-.204.644-.272.081-.068.161-.068.242-.135.161-.068.402-.204.563-.272.081 0 .081-.067.161-.067 0 0 .081 0 .081-.068.241-.136.564-.272.805-.407v-2.916a7.685 7.685 0 00-.644.339z" fill="#102465"/><path d="M518.658 60.806c-6.924 3.73-17.23 6.239-27.615 4.408-3.784-5.086 1.288-10.105 8.936-13.496l11.835 3.323 6.844 5.765z" fill="#00EDF9"/><path d="M516.645 60.738c-3.301 1.695-7.085 2.916-11.03 3.662-4.509.814-8.937.882-13.204.204-1.368-2.103-1.207-4.273.403-6.443 1.449-1.9 4.025-3.798 7.407-5.358l10.386 2.916 6.038 5.019z" fill="#1A6CBE"/><path d="M508.352 59.72v1.221h-10.305l-.08-3.255h2.576v2.035h7.809z" fill="#FDF7FB"/><path d="M516.886 86.441l6.602-39.402H484.36l6.602 39.402-8.453 4.07V249.34l21.415 10.444 21.335-10.444V90.51l-8.373-4.069z" fill="url(#paint45_linear_2145_42)"/><path d="M670.337 139.068l-87.996 43.064-88.4-43.064 88.4-42.997 87.996 42.997z" fill="url(#paint46_linear_2145_42)"/><path d="M670.337 139.068v201.623l-87.996 42.997V182.132l87.996-43.064z" fill="url(#paint47_linear_2145_42)"/><path d="M582.341 182.132v201.556l-88.4-42.997V139.068l88.4 43.064z" fill="url(#paint48_linear_2145_42)"/><path d="M582.341 190.61l87.996-42.997v-1.153l-87.996 43.065v1.085z" fill="#FF65EB"/><path d="M493.941 147.613l88.4 42.997v-1.085l-88.4-43.065v1.153z" fill="#FF20CE"/><path d="M524.535 174.876l-11.352-5.493v104.914l11.352 5.493V174.876z" fill="url(#paint49_linear_2145_42)"/><path d="M513.183 274.297l11.352 5.493v-10.986l-11.352 5.493z" fill="url(#paint50_linear_2145_42)"/><path d="M543.937 184.235l-11.271-5.561v104.982l11.271 5.493V184.235z" fill="url(#paint51_linear_2145_42)"/><path d="M532.666 283.656l11.271 5.493v-11.054l-11.271 5.561z" fill="url(#paint52_linear_2145_42)"/><path opacity=".561" d="M520.912 2.821L543.776 139l38.403 18.718L620.502 139 643.367 2.821H520.912z" fill="url(#paint53_linear_2145_42)"/><path opacity=".561" d="M520.912 0l22.864 139.553 38.403 19.182 38.323-19.182L643.367 0H520.912z" fill="url(#paint54_linear_2145_42)"/><path d="M620.502 139l-38.322 18.718L543.777 139l38.403-18.718L620.502 139z" fill="#A5FFFF"/><path d="M545.628 260.937l-87.997 42.997-88.399-42.997 88.399-43.064 87.997 43.064z" fill="url(#paint55_linear_2145_42)"/><path d="M545.628 260.937v106.406l-87.997 43.065V303.934l87.997-42.997z" fill="url(#paint56_linear_2145_42)"/><path d="M457.631 303.934v106.474l-88.399-43.065V260.937l88.399 42.997z" fill="url(#paint57_linear_2145_42)"/><path d="M457.631 312.479l87.997-43.065v-1.085l-87.997 43.065v1.085z" fill="#FF65EB"/><path d="M369.232 269.414l88.399 43.065v-1.085l-88.399-43.065v1.085z" fill="#FF20CE"/><path d="M500.221 249.679v.136c0 .068 0 .068-.081.135 0 .068 0 .136-.08.136 0 .068-.081.068-.081.136s-.08.135-.08.135c0 .068-.081.068-.081.136-.08.068-.08.136-.161.203 0 .068-.08.068-.08.136a.984.984 0 00-.242.271l-.08.068c-.081.068-.161.068-.161.136l-.161.135c-.081.068-.161.068-.242.136-.08.068-.161.068-.241.136l-53.7 26.313c-2.496 1.221-6.521 1.221-9.017 0l-24.717-12.071c-1.288-.611-1.851-1.425-1.851-2.238v2.78c0 .814.644 1.628 1.851 2.238l24.717 12.072c2.496 1.22 6.521 1.22 9.017 0l53.7-26.314s.08 0 .08-.068c.081 0 .081-.067.161-.067.081-.068.161-.068.242-.136l.161-.136c.08-.067.161-.067.161-.135l.08-.068a.984.984 0 00.242-.271l.08-.068s0-.068.081-.068c.08-.068.08-.136.161-.203l.08-.068v-.068c0-.068.081-.136.081-.136s0-.068.08-.068c0-.067 0-.135.081-.135v-3.255.135z" fill="#162A56"/><path d="M498.369 247.306c2.496 1.22 2.496 3.187 0 4.408l-53.7 26.313c-2.496 1.221-6.521 1.221-9.017 0l-24.716-12.072c-2.496-1.22-2.496-3.187 0-4.408l53.7-26.313c2.495-1.221 6.521-1.221 9.017 0l24.716 12.072zm-54.988 30.043l53.7-26.313c1.771-.882 1.771-2.238 0-3.12l-2.254-1.085-3.382.068-17.068-8.274.161-1.628-2.254-1.085c-1.771-.882-4.67-.882-6.441 0l-53.7 26.314c-1.771.881-1.771 2.238 0 3.119l24.717 12.072c1.852.814 4.75.814 6.521-.068z" fill="url(#paint58_linear_2145_42)"/><path d="M497.081 247.984c1.771.881 1.771 2.238 0 3.119l-53.7 26.314c-1.771.881-4.669.881-6.441 0l-24.716-12.072c-1.771-.882-1.771-2.238 0-3.12l53.7-26.313c1.771-.882 4.669-.882 6.441 0l2.254 1.085-.161 1.628 17.068 8.274 3.381-.068 2.174 1.153z" fill="#165DA4"/><path d="M497.081 247.984c1.771.881 1.771 2.238 0 3.119l-53.7 26.314c-1.771.881-4.669.881-6.441 0l-24.716-12.072c-1.771-.882-1.771-2.238 0-3.12l53.7-26.313c1.771-.882 4.669-.882 6.441 0l2.254 1.085-.161 1.628 17.068 8.274 3.381-.068 2.174 1.153z" fill="#165DA4"/><path opacity=".3" d="M429.534 244.796c3.139 1.492 3.139 3.934 0 5.493-3.14 1.492-8.132 1.492-11.191 0-3.14-1.492-3.14-3.933 0-5.493 3.059-1.56 8.051-1.56 11.191 0z" fill="#1A9BDB"/><path d="M419.309 245.949s-.483.068-.564.204c-.08.135-.161 1.424-.161 1.559 0 0 1.208.95 2.255 1.425 1.127.474 2.093.678 2.495.339.403-.339.161-.678-.724-1.289-.886-.61-1.771-2.306-1.771-2.306 0 .068-1.53.068-1.53.068zm5.797-1.967s-.484.068-.564.204c-.081.136-.161 1.424-.161 1.56 0 0 1.208.949 2.254 1.424 1.127.475 2.093.678 2.496.339s.161-.678-.725-1.288c-.885-.611-1.771-2.306-1.771-2.306 0 .067-1.529.067-1.529.067z" fill="#103450"/><path d="M428.326 225.875s0 .475-.081.61c0 .068-.563.746-.563.95 0 .203.241.407.241.407s0 .474.081.542c.08.068.563.068.644.068.08 0 .402.203.563.136.242-.068.806-.204.886-.272.081-.067.161-1.627-.161-2.78-.08-.407-.483-9.563-.725-9.495-.483.068-.885 9.834-.885 9.834z" fill="#FFC6A0"/><path d="M429.856 217.059c-.242-.882-.483-1.967-.725-2.713-.483-1.492-.886-2.713-1.932-2.713l-.322 5.154s.08.814.322 1.696c.966-.407 1.771-.882 2.657-1.424z" fill="#fff"/><path d="M418.584 226.824l-.08 19.464s1.288.678 2.737-.068c0 0 2.657-16.819 2.657-17.225.08-.34.402 15.394.402 15.394s1.611.814 2.818-.271l1.449-18.65-9.983 1.356z" fill="#103450"/><path d="M420.919 212.243s-1.691.543-3.22 1.56l.966 12.954s2.013 1.22 6.038.339c3.301-.746 4.187-1.899 4.187-1.899s.322-6.375 0-9.088c-.323-2.713-1.611-4.544-1.611-4.544-.724-.203-2.334-.135-2.334-.135l-4.026.813z" fill="#fff"/><path d="M425.186 204.377c-.725-.204-1.288-.204-2.093-.136-1.449.136-2.657.746-2.899 2.034-.161 1.018.242 2.035.725 2.917.644 1.153 1.047.746 1.047.746 1.207-.407 2.415-.814 3.542-1.221.322-.136.805-.204 1.127-.407.403-.339.322-.882.403-1.289.08-.542.241-1.085-.161-1.627-.322-.407-.805-.746-1.369-.95-.08 0-.242-.067-.322-.067z" fill="#103450"/><path d="M421.563 211.633l-.08-2.577s-.805-.068-.644-.746c.161-.746.966-.271 1.046-.068 0 0 .161-2.441 1.691-2.712 1.529-.272 3.059.067 3.059.678 0 .61.081 2.848 0 3.662-.08.814-.885 1.153-2.254 1.153l.08 1.356s-.724.407-2.656 0l-.242-.746z" fill="#FFC6A0"/><path d="M424.461 211.294s.242 0 .403.068c.081.068.644.542.725 1.085 0 .543-.242 1.153-.242 1.153l-1.288-.95-.805 1.289s-.483-.068-1.208-.543a3.367 3.367 0 01-1.127-1.085c.242-.474.403-.746.403-.746.08-.135.322-.135.322-.135s1.368 1.017 2.415 1.085c-.081-.068.322-.204.402-1.221z" fill="#fff"/><path d="M418.584 227.706s.161.475.161.542c.081.068.725.611.725.814.08.204-.161.407-.161.407s.08.475.08.543c0 .068-.563.135-.563.135-.081 0-.322.272-.564.204-.241-.068-.885-.068-.966-.136-.08-.068-.483-1.56-.564-2.78 0-.475.162-9.427.162-9.427.161 0 2.334.746 2.334.746l-.644 8.952z" fill="#FFC6A0"/><path d="M419.47 219.5c0-1.153.08-2.374.08-2.645-.08-1.017-.08-3.865-1.932-2.984-.724.407-.885 3.188-1.046 5.019.885.474 2.173.61 2.898.61z" fill="#fff"/><path d="M426.796 206.547c.161-.271.081-.611-.08-.882a2.48 2.48 0 00-.886-.61c-.886-.339-3.22-.746-3.301.542 0 .611.564 1.628 1.449 1.492.403-.068.564-.339 1.047-.271.241.068.805.475.805 0 .403.136.805 0 .966-.271z" fill="#103450"/><path d="M421.402 207.767c.403.34.725.746.805 1.221h.322v-.949c.564-.543.805-1.289.644-1.967-.08-.271-.241-.61-.644-.61-.322 0-.563.271-.724.542-.322.543-.483 1.153-.403 1.763z" fill="#103450"/><path opacity=".561" d="M394.914 169.043c.242 12.614 16.022 95.013 16.022 95.013.08.475.563.95 1.288 1.289l24.716 12.072c1.772.881 4.67.881 6.441 0l53.7-26.314c.886-.407 1.288-1.017 1.288-1.56 0 0 9.098-50.524 13.526-80.5H394.914z" fill="url(#paint59_linear_2145_42)"/><path opacity=".6" d="M468.742 251.917c-.322.203-.644.068-.644-.271s.241-.746.644-.882l3.059-1.492c.322-.203.644-.068.644.271a.975.975 0 01-.644.882l-3.059 1.492zm-15.458 4.951c-.322.203-.644.068-.644-.272 0-.339.241-.746.644-.881l5.152-2.509c.322-.136.644 0 .644.271a.972.972 0 01-.644.881l-5.152 2.51zm0-2.51c-.322.204-.644.068-.644-.271s.241-.746.644-.881l12.318-5.968c.322-.136.644 0 .644.339a.974.974 0 01-.644.881l-12.318 5.9zm14.733-7.188c-.322.203-.644.068-.644-.272 0-.339.241-.746.644-.881l3.784-1.831c.322-.204.644-.068.644.271a.975.975 0 01-.644.882l-3.784 1.831zm6.924 1.763v-8.884l7.407-3.595v8.885l-7.407 3.594zm-21.657 2.848c-.322.204-.644.068-.644-.271s.241-.746.644-.882l3.784-1.831c.322-.203.644-.067.644.272a.974.974 0 01-.644.881l-3.784 1.831zm6.199-3.051c-.322.203-.644.067-.644-.272s.241-.746.644-.881l12.318-5.968c.322-.204.644-.068.644.271a.975.975 0 01-.644.882l-12.318 5.968zm-6.28-2.035c-.322.203-.644.068-.644-.271s.242-.746.644-.882l5.877-2.848c.323-.204.645-.068.645.271a.976.976 0 01-.645.882l-5.877 2.848zm0-2.577c-.322.203-.644.068-.644-.271s.242-.746.644-.882l22.945-11.122c.323-.204.645-.068.645.271a.976.976 0 01-.645.882l-22.945 11.122zm25.361-12.343c-.322.136-.644.068-.644-.271s.322-.746.644-.882l3.059-1.492c.322-.203.644-.068.644.271a.975.975 0 01-.644.882l-3.059 1.492zm-25.361 9.766c-.322.203-.644 0-.644-.271 0-.34.242-.746.644-.882l17.954-8.749c.322-.203.644-.067.644.272a.974.974 0 01-.644.881l-17.954 8.749zm20.691-10.037c-.322.135-.644 0-.644-.339s.242-.746.644-.882l7.729-3.73c.322-.203.644-.068.644.271a.975.975 0 01-.644.882l-7.729 3.798zm-20.691 7.528c-.322.203-.644.067-.644-.272s.242-.746.644-.881l28.42-13.835c.322-.204.644-.068.644.271a.975.975 0 01-.644.882l-28.42 13.835zm-.402-3.73l-.081-13.157 29.467-14.31.08 13.157-29.466 14.31zm32.928-34.045l-36.471 17.7c-.966.475-1.771 1.628-1.771 2.577l.161 42.997c0 .95.805 1.357 1.771.882l36.471-17.701c.966-.474 1.771-1.627 1.771-2.577l-.161-42.996c0-.95-.805-1.357-1.771-.882z" fill="#00EDF9"/><path d="M482.187 207.835l-29.386 14.31v13.157l29.466-14.31-.08-13.157zm-.564 16.141l-28.42 13.835c-.322.203-.644.543-.644.882 0 .339.242.474.644.271l28.42-13.835c.322-.203.644-.543.644-.882 0-.339-.322-.474-.644-.271zm-10.466 7.664l-17.954 8.68c-.322.204-.644.543-.644.882 0 .339.242.475.644.271l17.954-8.748c.322-.204.644-.611.644-.882s-.241-.407-.644-.203zm10.466-5.087l-7.729 3.73c-.322.136-.644.543-.644.882 0 .339.242.475.644.339l7.729-3.73c.322-.204.644-.61.644-.882 0-.407-.241-.542-.644-.339zm-5.474 5.222l-22.946 11.122c-.322.204-.644.543-.644.882 0 .339.242.475.644.271l22.946-11.122c.322-.204.644-.543.644-.882 0-.339-.322-.474-.644-.271zm5.474-2.713l-3.059 1.492c-.322.136-.644.543-.644.882 0 .339.322.475.644.271l3.059-1.492c.322-.203.644-.542.644-.881 0-.272-.241-.407-.644-.272zm-22.542 13.564l-5.878 2.848c-.322.204-.644.543-.644.882 0 .339.242.475.644.271l5.878-2.848c.322-.204.644-.543.644-.882 0-.339-.322-.474-.644-.271zm12.72 1.492l-3.784 1.831c-.322.204-.644.543-.644.882 0 .339.242.475.644.271l3.784-1.831c.322-.204.644-.543.644-.882-.08-.339-.322-.474-.644-.271zm-6.28 2.984l-12.318 5.968c-.322.203-.644.543-.644.882 0 .339.242.474.644.271l12.318-5.968c.322-.136.644-.543.644-.882 0-.271-.241-.407-.644-.271zm6.28 2.102l-3.059 1.492c-.322.204-.644.543-.644.882 0 .339.241.475.644.271l3.059-1.492c.322-.203.644-.542.644-.881 0-.34-.322-.407-.644-.272zm-13.445 4.002l-5.153 2.509c-.322.203-.644.543-.644.882 0 .339.242.474.644.271l5.153-2.509c.322-.136.644-.543.644-.882 0-.339-.322-.475-.644-.271zm-1.369-4.476l-3.784 1.831c-.322.203-.644.542-.644.881 0 .339.242.475.644.272l3.784-1.831c.322-.204.644-.543.644-.882 0-.339-.241-.475-.644-.271zm14.733-7.189l-12.317 5.968c-.323.203-.645.542-.645.882 0 .339.242.474.645.271l12.317-5.968c.322-.204.645-.543.645-.882 0-.271-.242-.407-.645-.271zm10.547-5.086l-7.407 3.594.081 8.884 7.407-3.594-.081-8.884z" fill="#A5FFFF"/><path opacity=".561" d="M98.881 165.381v104.983l56.92 27.67 56.679-27.67V165.381H98.881z" fill="url(#paint60_linear_2145_42)"/><path d="M212.48 246.356l-56.679 27.738-56.92-27.738 56.92-27.737 56.679 27.737z" fill="url(#paint61_linear_2145_42)"/><path d="M212.48 246.356v104.915l-56.679 27.737V274.094l56.679-27.738z" fill="url(#paint62_linear_2145_42)"/><path d="M155.801 274.094v104.914l-56.92-27.737V246.356l56.92 27.738z" fill="url(#paint63_linear_2145_42)"/><path d="M155.801 279.994l56.679-27.738v-1.153l-56.679 27.738v1.153z" fill="#FF65EB"/><path d="M98.881 252.256l56.92 27.738v-1.153l-56.92-27.738v1.153z" fill="#FF20CE"/><path opacity=".4" d="M179.713 256.8c-3.301-1.628-8.615-1.628-11.916 0s-3.22 4.205 0 5.832c3.301 1.628 8.615 1.628 11.916 0 3.3-1.627 3.3-4.204 0-5.832z" fill="#1A9BDB"/><path d="M179.874 274.433s-.403.068-.483.203c-.081.136-.161 1.357-.081 1.492 0 0 1.127.95 2.174 1.424 1.046.475 2.013.679 2.415.339.403-.339.161-.678-.725-1.22-.885-.543-1.69-2.17-1.69-2.17-.081-.068-1.61-.068-1.61-.068zm2.093-3.663s-.403-.067-.564.068c-.08.136-.563 1.289-.563 1.425 0 0 .805 1.152 1.69 1.831.886.678 1.691 1.085 2.174.881.483-.203.322-.61-.322-1.356-.644-.746-.966-2.509-.966-2.509.081 0-1.449-.34-1.449-.34z" fill="#103450"/><path d="M167.958 255.783c0 1.695.242 4.408 1.288 5.018 1.611.95 8.132 5.155 8.132 5.155l1.771 8.68s1.127.95 2.818 0c0 0-1.127-9.766-1.369-10.579-.241-.882-6.28-6.375-6.28-6.375l-6.36-1.899z" fill="#103450"/><path d="M173.352 254.901c-.563 1.628-.885 3.595-.08 4.341.966.813 10.788 3.323 10.788 3.323l-2.898 8.274s.805 1.152 2.737.61c0 0 5.233-9.495 5.314-10.376.08-.882-9.903-4.951-9.903-4.951l-5.958-1.221z" fill="#103450"/><path d="M189.213 258.428l-9.661 4.747.08-.068 9.661-4.747s0 .068-.08.068z" fill="#011C63"/><path d="M179.632 262.904l9.661-4.748v.204l-9.661 4.747v-.203z" fill="#011C63"/><path d="M172.386 259.309l9.661-4.747 7.166 3.527-9.661 4.747-7.166-3.527z" fill="#FCFEFB"/><path d="M187.119 257.817c.161.068.161.204 0 .272l-7.245 3.526a.805.805 0 01-.564 0l-2.737-1.356c-.161-.068-.161-.204 0-.272l7.246-3.526a.802.802 0 01.563 0l2.737 1.356z" fill="#103450"/><path d="M179.954 263.107l2.979-4.476 9.661-4.747-2.979 4.476-9.661 4.747z" fill="#FCFEFB"/><path d="M182.772 258.021l.08.068c.161.135.242.407.161.474l-2.978 4.476c-.081.204-.403.136-.564.068l-6.763-3.323a.563.563 0 01-.322-.475v-.067l7.246 3.526 3.14-4.747z" fill="#FCFEFB"/><path d="M182.772 258.021l9.661-4.748.081.068c.161.136.241.407.161.475l-9.662 4.747c.081-.135 0-.339-.161-.474l-.08-.068z" fill="#FCFEFB"/><path d="M181.886 256.664c.081 0 .081.068 0 .136l-2.415 1.153h-.241l-1.208-.61c-.081 0-.081-.068 0-.136l2.415-1.153h.242l1.207.61z" fill="#103450"/><path d="M177.861 247.78s1.047 2.306 1.288 2.916c.242.611 2.737 4.341 2.898 4.544.161.204 2.013 1.424 2.013 1.628 0 .203-.161.542-.724.61-.564.068-2.174-.881-2.174-.881s-.403.881-.564-.204c-.161-1.017.322-.881-.08-1.424 0 0-2.657-1.492-3.301-3.391-.644-1.899-.081-3.526-.081-3.526l.725-.272z" fill="#FFC6A0"/><path d="M178.666 248.119c-.483-1.899-1.53-4.408-2.496-4.476l.886 5.426c.08 0 .966-.272 1.61-.95z" fill="#FCFEFB"/><path d="M170.132 244.186s-1.691.542-3.14 1.56l.886 10.851s1.932 1.153 5.796.339c3.221-.678 4.026-1.831 4.026-1.831s.322-5.29 0-7.935c-.322-2.577-1.53-3.594-1.53-3.594-.724-.204-2.254-.136-2.254-.136l-3.784.746z" fill="#FCFEFB"/><path d="M174.479 236.794s-2.093-.407-4.106.203c-2.012.611-.805 3.052-.241 4.205.564 1.153.966.746.966.746l4.348-1.492s.161-.136.08-1.628c-.08-1.56-1.047-2.034-1.047-2.034z" fill="#103450"/><path d="M170.776 243.576l-.08-2.51s-.725-.068-.645-.746c.161-.678.886-.203 1.047 0 0 0 .161-2.373 1.691-2.577 1.449-.203 2.898.068 2.979.678 0 .611.08 2.713 0 3.527-.081.814-.805 1.085-2.174 1.085l.08 1.289s-.644.406-2.576 0l-.322-.746z" fill="#FFC6A0"/><path d="M173.594 243.304s.241 0 .322.068c.08.068.644.475.644 1.017 0 .475-.242 1.085-.242 1.085l-1.207-.949-.805 1.288s-.483-.067-1.127-.474c-.645-.407-1.047-1.018-1.047-1.018.241-.474.322-.746.322-.746.08-.135.322-.135.322-.135s1.288 1.017 2.335 1.085c0-.136.402-.271.483-1.221z" fill="#103450"/><path d="M167.717 251.375c.402-.814 1.288-2.849 1.046-3.934-.322-1.356-1.771-1.695-1.771-1.695-.644.61-1.53 2.509-2.093 4.137.966.474 1.932 1.017 2.818 1.492z" fill="#FCFEFB"/><path d="M177.297 237.404c-.08-.271-.241-.475-.402-.678-.966-1.017-2.416-.407-3.704-.61-.322-.068-.563-.204-.885-.204-.805 0-1.691.339-2.013.95-.081.135-.081.203-.161.339-.081.203-.161.407-.161.61 0 .407.241.814.241 1.221.081.61.484 1.22.886 1.763.081 0 .242-.068.322-.068 0-.271.081-.542.161-.814.242-.407.403-.813.161-1.22.725.339.886.339 1.771.203.564-.068 1.127.136 1.611.339.483.204 1.127.339 1.61.068.402-.203.483-.61.563-.949.161-.34.161-.679 0-.95z" fill="#103450"/><path d="M165.784 250.357s-.644 2.849-.08 3.459c.563.61 6.199 3.391 6.682 3.798.483.407 2.013 1.492 3.06 1.492 1.046 0 1.529.814 2.093.881.483.068.402-1.017.322-1.492-.161-.542-1.449-.61-1.449-.61s1.368-.542-.805-.339l-1.208-.203-6.199-5.019.161-.882-2.577-1.085z" fill="#FFC6A0"/><g opacity=".6"><path opacity=".6" d="M139.216 237.54v-5.019l4.026-1.966v5.018l-4.026 1.967zm15.297-7.46v-7.528l4.026-1.967v7.528l-4.026 1.967zm-15.297 2.509v-3.052l4.026-1.966v3.051l-4.026 1.967zm7.649 1.221v-8.749l4.025-1.966v8.748l-4.025 1.967zm15.296-7.46v-11.8l4.026-1.967v11.8l-4.026 1.967zm-7.648-3.73v-4.68l4.026-1.966v4.679l-4.026 1.967zm-7.648 2.441v-5.425l4.025-1.967v5.426l-4.025 1.966zm15.296-10.511v-7.325l4.026-1.967v7.325l-4.026 1.967zm-25.924 27.669c-.161.068-.322 0-.322-.135l-.08-23.533c0-.204.161-.407.322-.475s.322 0 .322.136l.08 23.261 35.183-17.158c.161-.067.322 0 .322.136s-.161.407-.322.475l-35.505 17.293zm6.924-30.789c-.322.203-.644 0-.644-.339s.322-.746.644-.95l10.305-5.018c.323-.204.645 0 .645.339s-.322.746-.645.949l-10.305 5.019zm12.479-6.036c-.322.204-.644 0-.644-.339s.322-.746.644-.949l2.335-1.153c.322-.204.644 0 .644.339s-.322.746-.644.949l-2.335 1.153zm-19.483 9.562v-1.492l3.864-1.898v1.492l-3.864 1.898zm13.848-9.969c-.161.068-.322.068-.484.068a.48.48 0 01-.161-.339v-.271l.081-.136.08-.136c.081-.203.323-.339.484-.407.161-.067.322-.135.483-.067l.08.067.081.068.08.068v.136c0 .135-.08.339-.161.542-.241.136-.402.272-.563.407zm-6.844 3.323c-.322.204-.644 0-.644-.339s.322-.746.644-.949l4.992-2.442c.322-.203.644 0 .644.339s-.322.746-.644.95l-4.992 2.441zm8.856-4.34c-.322.203-.644 0-.644-.339s.322-.746.644-.95l5.958-2.916c.322-.203.644 0 .644.339s-.322.746-.644.95l-5.958 2.916zm-15.86 7.867v-1.492l3.864-1.899v1.492l-3.864 1.899zm38.322-24.55l-41.784 20.345c-1.047.543-1.932 1.763-1.932 2.781l.161 37.3c0 1.017.885 1.424 1.932.949l41.784-20.345c1.047-.543 1.933-1.764 1.933-2.781l-.161-37.3c0-1.017-.805-1.492-1.933-.949z" fill="#00EDF9"/><path opacity=".6" d="M136.157 218.008a.563.563 0 00-.322.475l.08 23.533c0 .135.161.271.322.135l35.505-17.293a.563.563 0 00.322-.475c0-.203-.161-.271-.322-.136l-35.182 17.158-.081-23.261c0-.136-.161-.204-.322-.136z" fill="#A5FFFF"/><path opacity=".6" d="M143.242 230.623l-4.026 1.966v4.951l4.026-1.967v-4.95zm7.648-7.461l-4.025 1.899v8.749l4.025-1.967v-8.681zm7.649-2.509l-4.026 1.967v7.46l4.026-1.967v-7.46zm7.648-8.07l-4.025 1.966v11.801l4.025-1.967v-11.8z" fill="#FDF7FB"/><path opacity=".6" d="M143.242 227.503l-4.026 1.966v3.12l4.026-1.967v-3.119zm7.568-9.766l-3.945 1.967v5.357l4.025-1.899-.08-5.425zm7.729-1.763l-4.026 1.966v4.68l4.026-1.967v-4.679zm7.648-10.715l-4.025 1.966v7.325l4.025-1.967v-7.324z" fill="#A5FFFF"/><path opacity=".6" d="M139.941 208.514l-3.784 1.831v1.492l3.864-1.899-.08-1.424zm.08 3.119l-3.864 1.831v1.492l3.864-1.899v-1.424z" fill="#FDF7FB"/><path opacity=".6" d="M148.153 204.648l-4.992 2.442c-.322.203-.644.61-.644.949 0 .339.322.475.644.339l4.992-2.441c.322-.204.644-.611.644-.95 0-.407-.322-.542-.644-.339zm1.852-.949c-.161.067-.322.203-.483.406l-.081.136-.081.136v.271c0 .136.081.271.162.339.161.068.322.068.483-.068.161-.068.322-.203.483-.407.08-.203.161-.339.161-.542v-.136l-.081-.068-.08-.067-.081-.068c-.08 0-.241 0-.402.068zm7.97-3.866l-5.958 2.916c-.322.204-.644.611-.644.95 0 .339.322.474.644.339l5.958-2.916c.322-.204.644-.611.644-.95 0-.339-.322-.475-.644-.339zm-4.509 5.358l-10.305 5.018c-.322.204-.644.611-.644.95 0 .339.322.474.644.339l10.305-5.019c.323-.203.645-.61.645-.949 0-.407-.322-.543-.645-.339zm4.509-2.239l-2.335 1.153c-.322.204-.644.611-.644.95 0 .339.322.475.644.339l2.335-1.153c.322-.203.644-.61.644-.949 0-.34-.322-.475-.644-.34z" fill="#A5FFFF"/></g><path d="M44.457 286.776l-8.856 4.34-8.857-4.34 8.857-4.341 8.856 4.341z" fill="url(#paint64_linear_2145_42)"/><path d="M44.457 286.776v105.931l-8.856 4.341V291.116l8.856-4.34z" fill="url(#paint65_linear_2145_42)"/><path d="M35.6 291.116v105.932l-8.856-4.341V286.776l8.856 4.34z" fill="url(#paint66_linear_2145_42)"/><path d="M35.6 282.435l-8.856 4.341v105.931l8.857 4.341 8.856-4.341V286.776l-8.856-4.341z" fill="url(#paint67_linear_2145_42)"/><defs><linearGradient id="paint0_linear_2145_42" x1="148.613" y1="98.283" x2="146.029" y2="106.956" gradientUnits="userSpaceOnUse"><stop stop-color="#89DAF4"/><stop offset="1" stop-color="#008DD7"/></linearGradient><linearGradient id="paint1_linear_2145_42" x1="146.872" y1="196.514" x2="157.933" y2="196.514" gradientUnits="userSpaceOnUse"><stop stop-color="#144188"/><stop offset=".998" stop-color="#1A7CDE"/></linearGradient><linearGradient id="paint2_linear_2145_42" x1="135.763" y1="196.514" x2="146.872" y2="196.514" gradientUnits="userSpaceOnUse"><stop stop-color="#144188"/><stop offset=".998" stop-color="#102465"/></linearGradient><linearGradient id="paint3_linear_2145_42" x1="147.322" y1="131.335" x2="146.748" y2="238.049" gradientUnits="userSpaceOnUse"><stop stop-color="#0276CE" stop-opacity="0"/><stop offset=".06" stop-color="#0276CE" stop-opacity=".074"/><stop offset=".812" stop-color="#0276CE"/></linearGradient><linearGradient id="paint4_linear_2145_42" x1="133.617" y1="136.969" x2="131.888" y2="142.771" gradientUnits="userSpaceOnUse"><stop stop-color="#89DAF4"/><stop offset="1" stop-color="#008DD7"/></linearGradient><linearGradient id="paint5_linear_2145_42" x1="132.453" y1="202.68" x2="139.851" y2="202.68" gradientUnits="userSpaceOnUse"><stop stop-color="#144188"/><stop offset=".998" stop-color="#1A7CDE"/></linearGradient><linearGradient id="paint6_linear_2145_42" x1="125.022" y1="202.68" x2="132.453" y2="202.68" gradientUnits="userSpaceOnUse"><stop stop-color="#144188"/><stop offset=".998" stop-color="#102465"/></linearGradient><linearGradient id="paint7_linear_2145_42" x1="132.753" y1="159.079" x2="132.369" y2="230.464" gradientUnits="userSpaceOnUse"><stop stop-color="#006AC6" stop-opacity="0"/><stop offset=".817" stop-color="#006CC7"/></linearGradient><linearGradient id="paint8_linear_2145_42" x1="13.178" y1="235.976" x2="10.594" y2="244.649" gradientUnits="userSpaceOnUse"><stop stop-color="#89DAF4"/><stop offset="1" stop-color="#008DD7"/></linearGradient><linearGradient id="paint9_linear_2145_42" x1="11.437" y1="309.154" x2="22.498" y2="309.154" gradientUnits="userSpaceOnUse"><stop stop-color="#144188"/><stop offset=".998" stop-color="#1A7CDE"/></linearGradient><linearGradient id="paint10_linear_2145_42" x1=".328" y1="309.154" x2="11.437" y2="309.154" gradientUnits="userSpaceOnUse"><stop stop-color="#144188"/><stop offset=".998" stop-color="#102465"/></linearGradient><linearGradient id="paint11_linear_2145_42" x1="11.764" y1="260.155" x2="11.339" y2="339.232" gradientUnits="userSpaceOnUse"><stop stop-color="#0044AE" stop-opacity="0"/><stop offset=".06" stop-color="#0044AE" stop-opacity=".074"/><stop offset=".812" stop-color="#0044AE"/></linearGradient><linearGradient id="paint12_linear_2145_42" x1="174.21" y1="131.36" x2="172.587" y2="136.805" gradientUnits="userSpaceOnUse"><stop stop-color="#89DAF4"/><stop offset="1" stop-color="#008DD7"/></linearGradient><linearGradient id="paint13_linear_2145_42" x1="173.117" y1="193.036" x2="180.061" y2="193.036" gradientUnits="userSpaceOnUse"><stop stop-color="#144188"/><stop offset=".998" stop-color="#1A7CDE"/></linearGradient><linearGradient id="paint14_linear_2145_42" x1="166.142" y1="193.036" x2="173.117" y2="193.036" gradientUnits="userSpaceOnUse"><stop stop-color="#144188"/><stop offset=".998" stop-color="#102465"/></linearGradient><linearGradient id="paint15_linear_2145_42" x1="173.399" y1="152.112" x2="173.039" y2="219.115" gradientUnits="userSpaceOnUse"><stop stop-color="#0276CE" stop-opacity="0"/><stop offset=".06" stop-color="#0276CE" stop-opacity=".074"/><stop offset=".812" stop-color="#0276CE"/></linearGradient><linearGradient id="paint16_linear_2145_42" x1="329.487" y1="45.482" x2="328.041" y2="291.484" gradientUnits="userSpaceOnUse"><stop offset=".037" stop-color="#93FFFD" stop-opacity="0"/><stop offset=".622" stop-color="#A5FDFE" stop-opacity=".608"/><stop offset="1" stop-color="#B2FBFF"/></linearGradient><linearGradient id="paint17_linear_2145_42" x1="351.716" y1="114.366" x2="317.87" y2="227.978" gradientUnits="userSpaceOnUse"><stop stop-color="#89DAF4"/><stop offset="1" stop-color="#008DD7"/></linearGradient><linearGradient id="paint18_linear_2145_42" x1="328.916" y1="293.541" x2="473.804" y2="293.541" gradientUnits="userSpaceOnUse"><stop stop-color="#144188"/><stop offset=".998" stop-color="#1A7CDE"/></linearGradient><linearGradient id="paint19_linear_2145_42" x1="183.397" y1="293.542" x2="328.916" y2="293.542" gradientUnits="userSpaceOnUse"><stop stop-color="#144188"/><stop offset=".998" stop-color="#102465"/></linearGradient><linearGradient id="paint20_linear_2145_42" x1="328.741" y1="79.586" x2="328.517" y2="107.976" gradientUnits="userSpaceOnUse"><stop offset=".037" stop-color="#93FFFD" stop-opacity="0"/><stop offset=".622" stop-color="#A5FDFE" stop-opacity=".608"/><stop offset="1" stop-color="#B2FBFF"/></linearGradient><linearGradient id="paint21_linear_2145_42" x1="204.015" y1="140.138" x2="203.791" y2="168.528" gradientUnits="userSpaceOnUse"><stop offset=".037" stop-color="#93FFFD" stop-opacity="0"/><stop offset=".622" stop-color="#A5FDFE" stop-opacity=".608"/><stop offset="1" stop-color="#B2FBFF"/></linearGradient><linearGradient id="paint22_linear_2145_42" x1="328.724" y1="199.479" x2="328.501" y2="227.869" gradientUnits="userSpaceOnUse"><stop offset=".037" stop-color="#93FFFD" stop-opacity="0"/><stop offset=".622" stop-color="#A5FDFE" stop-opacity=".608"/><stop offset="1" stop-color="#B2FBFF"/></linearGradient><linearGradient id="paint23_linear_2145_42" x1="455.607" y1="140.138" x2="455.384" y2="168.528" gradientUnits="userSpaceOnUse"><stop offset=".037" stop-color="#93FFFD" stop-opacity="0"/><stop offset=".622" stop-color="#A5FDFE" stop-opacity=".608"/><stop offset="1" stop-color="#B2FBFF"/></linearGradient><linearGradient id="paint24_linear_2145_42" x1="455.608" y1="140.138" x2="455.384" y2="168.528" gradientUnits="userSpaceOnUse"><stop offset=".037" stop-color="#93FFFD" stop-opacity="0"/><stop offset=".622" stop-color="#A5FDFE" stop-opacity=".608"/><stop offset="1" stop-color="#B2FBFF"/></linearGradient><linearGradient id="paint25_linear_2145_42" x1="328.741" y1="199.479" x2="328.517" y2="227.869" gradientUnits="userSpaceOnUse"><stop offset=".037" stop-color="#93FFFD" stop-opacity="0"/><stop offset=".622" stop-color="#A5FDFE" stop-opacity=".608"/><stop offset="1" stop-color="#B2FBFF"/></linearGradient><linearGradient id="paint26_linear_2145_42" x1="339.224" y1="122.672" x2="325.564" y2="220.416" gradientUnits="userSpaceOnUse"><stop stop-color="#CDEFFB"/><stop offset="1" stop-color="#89DAF4"/></linearGradient><linearGradient id="paint27_linear_2145_42" x1="244.996" y1="119.052" x2="351.711" y2="119.052" gradientUnits="userSpaceOnUse"><stop stop-color="#CDEFFB"/><stop offset="1" stop-color="#89DAF4"/></linearGradient><linearGradient id="paint28_linear_2145_42" x1="291.636" y1="252.579" x2="274.518" y2="282.137" gradientUnits="userSpaceOnUse"><stop stop-color="#144188"/><stop offset=".998" stop-color="#1A7CDE"/></linearGradient><linearGradient id="paint29_linear_2145_42" x1="280.16" y1="246.219" x2="231.008" y2="256.138" gradientUnits="userSpaceOnUse"><stop offset=".153" stop-color="#144188"/><stop offset=".998" stop-color="#1A7CDE"/></linearGradient><linearGradient id="paint30_linear_2145_42" x1="291.636" y1="290.316" x2="274.518" y2="319.874" gradientUnits="userSpaceOnUse"><stop stop-color="#144188"/><stop offset=".998" stop-color="#1A7CDE"/></linearGradient><linearGradient id="paint31_linear_2145_42" x1="280.16" y1="283.955" x2="231.008" y2="293.874" gradientUnits="userSpaceOnUse"><stop offset=".153" stop-color="#144188"/><stop offset=".998" stop-color="#1A7CDE"/></linearGradient><linearGradient id="paint32_linear_2145_42" x1="291.636" y1="328.052" x2="274.518" y2="357.61" gradientUnits="userSpaceOnUse"><stop stop-color="#144188"/><stop offset=".998" stop-color="#1A7CDE"/></linearGradient><linearGradient id="paint33_linear_2145_42" x1="280.16" y1="321.691" x2="231.008" y2="331.61" gradientUnits="userSpaceOnUse"><stop offset=".153" stop-color="#144188"/><stop offset=".998" stop-color="#1A7CDE"/></linearGradient><linearGradient id="paint34_linear_2145_42" x1="82.156" y1="157.378" x2="72.742" y2="188.978" gradientUnits="userSpaceOnUse"><stop stop-color="#89DAF4"/><stop offset="1" stop-color="#008DD7"/></linearGradient><linearGradient id="paint35_linear_2145_42" x1="75.814" y1="272.133" x2="116.113" y2="272.133" gradientUnits="userSpaceOnUse"><stop stop-color="#144188"/><stop offset=".998" stop-color="#1A7CDE"/></linearGradient><linearGradient id="paint36_linear_2145_42" x1="35.339" y1="272.133" x2="75.814" y2="272.133" gradientUnits="userSpaceOnUse"><stop stop-color="#144188"/><stop offset=".998" stop-color="#102465"/></linearGradient><linearGradient id="paint37_linear_2145_42" x1="86.569" y1="89.293" x2="61.594" y2="173.127" gradientUnits="userSpaceOnUse"><stop offset=".037" stop-color="#93FFFD" stop-opacity="0"/><stop offset=".622" stop-color="#A5FDFE" stop-opacity=".608"/><stop offset="1" stop-color="#B2FBFF"/></linearGradient><linearGradient id="paint38_linear_2145_42" x1="60.225" y1="254.662" x2="46.415" y2="254.337" gradientUnits="userSpaceOnUse"><stop stop-color="#144188"/><stop offset=".998" stop-color="#1A7CDE"/></linearGradient><linearGradient id="paint39_linear_2145_42" x1="64.265" y1="304.345" x2="52.906" y2="304.078" gradientUnits="userSpaceOnUse"><stop stop-color="#144188"/><stop offset=".998" stop-color="#1A7CDE"/></linearGradient><linearGradient id="paint40_linear_2145_42" x1="74.91" y1="356.803" x2="75.64" y2="237.67" gradientUnits="userSpaceOnUse"><stop stop-color="#0044AE"/><stop offset="1" stop-color="#0044AE" stop-opacity="0"/></linearGradient><linearGradient id="paint41_linear_2145_42" x1="507.309" y1="82.439" x2="502.329" y2="99.155" gradientUnits="userSpaceOnUse"><stop stop-color="#89DAF4"/><stop offset="1" stop-color="#008DD7"/></linearGradient><linearGradient id="paint42_linear_2145_42" x1="503.954" y1="175.164" x2="525.272" y2="175.164" gradientUnits="userSpaceOnUse"><stop stop-color="#144188"/><stop offset=".998" stop-color="#1A7CDE"/></linearGradient><linearGradient id="paint43_linear_2145_42" x1="482.543" y1="175.164" x2="503.954" y2="175.164" gradientUnits="userSpaceOnUse"><stop stop-color="#144188"/><stop offset=".998" stop-color="#102465"/></linearGradient><linearGradient id="paint44_linear_2145_42" x1="509.643" y1="46.422" x2="496.432" y2="90.77" gradientUnits="userSpaceOnUse"><stop offset=".037" stop-color="#93FFFD" stop-opacity="0"/><stop offset=".622" stop-color="#A5FDFE" stop-opacity=".608"/><stop offset="1" stop-color="#B2FBFF"/></linearGradient><linearGradient id="paint45_linear_2145_42" x1="502.875" y1="227.799" x2="504.335" y2="112.56" gradientUnits="userSpaceOnUse"><stop stop-color="#0091DE"/><stop offset=".643" stop-color="#0099E3" stop-opacity=".357"/><stop offset="1" stop-color="#00A0E8" stop-opacity="0"/></linearGradient><linearGradient id="paint46_linear_2145_42" x1="596.174" y1="105.635" x2="575.615" y2="174.644" gradientUnits="userSpaceOnUse"><stop stop-color="#89DAF4"/><stop offset="1" stop-color="#008DD7"/></linearGradient><linearGradient id="paint47_linear_2145_42" x1="582.325" y1="261.391" x2="670.331" y2="261.391" gradientUnits="userSpaceOnUse"><stop stop-color="#144188"/><stop offset=".998" stop-color="#1A7CDE"/></linearGradient><linearGradient id="paint48_linear_2145_42" x1="493.935" y1="261.391" x2="582.325" y2="261.391" gradientUnits="userSpaceOnUse"><stop stop-color="#144188"/><stop offset=".998" stop-color="#102465"/></linearGradient><linearGradient id="paint49_linear_2145_42" x1="524.369" y1="224.675" x2="510.559" y2="224.35" gradientUnits="userSpaceOnUse"><stop stop-color="#144188"/><stop offset=".998" stop-color="#1A7CDE"/></linearGradient><linearGradient id="paint50_linear_2145_42" x1="528.41" y1="274.359" x2="517.051" y2="274.091" gradientUnits="userSpaceOnUse"><stop stop-color="#144188"/><stop offset=".998" stop-color="#1A7CDE"/></linearGradient><linearGradient id="paint51_linear_2145_42" x1="543.805" y1="234.022" x2="529.995" y2="233.697" gradientUnits="userSpaceOnUse"><stop stop-color="#144188"/><stop offset=".998" stop-color="#1A7CDE"/></linearGradient><linearGradient id="paint52_linear_2145_42" x1="547.846" y1="283.705" x2="536.487" y2="283.438" gradientUnits="userSpaceOnUse"><stop stop-color="#144188"/><stop offset=".998" stop-color="#1A7CDE"/></linearGradient><linearGradient id="paint53_linear_2145_42" x1="600.086" y1=".902" x2="558.735" y2="139.705" gradientUnits="userSpaceOnUse"><stop offset=".037" stop-color="#93FFFD" stop-opacity="0"/><stop offset=".622" stop-color="#A5FDFE" stop-opacity=".608"/><stop offset="1" stop-color="#B2FBFF"/></linearGradient><linearGradient id="paint54_linear_2145_42" x1="600.086" y1="-1.967" x2="556.837" y2="139.696" gradientUnits="userSpaceOnUse"><stop offset=".037" stop-color="#93FFFD" stop-opacity="0"/><stop offset=".622" stop-color="#A5FDFE" stop-opacity=".608"/><stop offset="1" stop-color="#B2FBFF"/></linearGradient><linearGradient id="paint55_linear_2145_42" x1="471.459" y1="227.479" x2="450.901" y2="296.488" gradientUnits="userSpaceOnUse"><stop stop-color="#89DAF4"/><stop offset="1" stop-color="#008DD7"/></linearGradient><linearGradient id="paint56_linear_2145_42" x1="457.61" y1="335.652" x2="545.616" y2="335.652" gradientUnits="userSpaceOnUse"><stop stop-color="#144188"/><stop offset=".998" stop-color="#1A7CDE"/></linearGradient><linearGradient id="paint57_linear_2145_42" x1="369.221" y1="335.652" x2="457.61" y2="335.652" gradientUnits="userSpaceOnUse"><stop stop-color="#144188"/><stop offset=".998" stop-color="#102465"/></linearGradient><linearGradient id="paint58_linear_2145_42" x1="467.56" y1="234.581" x2="439.867" y2="301.308" gradientUnits="userSpaceOnUse"><stop stop-color="#CDEFFB"/><stop offset="1" stop-color="#89DAF4"/></linearGradient><linearGradient id="paint59_linear_2145_42" x1="452.675" y1="188.798" x2="450.483" y2="267.298" gradientUnits="userSpaceOnUse"><stop offset=".037" stop-color="#93FFFD" stop-opacity="0"/><stop offset=".622" stop-color="#A5FDFE" stop-opacity=".608"/><stop offset="1" stop-color="#B2FBFF"/></linearGradient><linearGradient id="paint60_linear_2145_42" x1="155.577" y1="178.213" x2="155.757" y2="273.887" gradientUnits="userSpaceOnUse"><stop offset=".037" stop-color="#93FFFD" stop-opacity="0"/><stop offset=".622" stop-color="#A5FDFE" stop-opacity=".608"/><stop offset="1" stop-color="#B2FBFF"/></linearGradient><linearGradient id="paint61_linear_2145_42" x1="164.723" y1="224.828" x2="151.485" y2="269.262" gradientUnits="userSpaceOnUse"><stop stop-color="#89DAF4"/><stop offset="1" stop-color="#008DD7"/></linearGradient><linearGradient id="paint62_linear_2145_42" x1="155.806" y1="312.683" x2="212.471" y2="312.683" gradientUnits="userSpaceOnUse"><stop stop-color="#144188"/><stop offset=".998" stop-color="#1A7CDE"/></linearGradient><linearGradient id="paint63_linear_2145_42" x1="98.893" y1="312.684" x2="155.806" y2="312.684" gradientUnits="userSpaceOnUse"><stop stop-color="#144188"/><stop offset=".998" stop-color="#102465"/></linearGradient><linearGradient id="paint64_linear_2145_42" x1="37.031" y1="283.416" x2="34.966" y2="290.35" gradientUnits="userSpaceOnUse"><stop stop-color="#89DAF4"/><stop offset="1" stop-color="#008DD7"/></linearGradient><linearGradient id="paint65_linear_2145_42" x1="35.64" y1="341.918" x2="44.482" y2="341.918" gradientUnits="userSpaceOnUse"><stop stop-color="#144188"/><stop offset=".998" stop-color="#1A7CDE"/></linearGradient><linearGradient id="paint66_linear_2145_42" x1="26.759" y1="341.918" x2="35.64" y2="341.918" gradientUnits="userSpaceOnUse"><stop stop-color="#144188"/><stop offset=".998" stop-color="#102465"/></linearGradient><linearGradient id="paint67_linear_2145_42" x1="35.901" y1="302.746" x2="35.561" y2="365.963" gradientUnits="userSpaceOnUse"><stop stop-color="#0044AE" stop-opacity="0"/><stop offset=".06" stop-color="#0044AE" stop-opacity=".074"/><stop offset=".812" stop-color="#0044AE"/></linearGradient></defs></svg>