<svg width="39" height="29" fill="none" xmlns="http://www.w3.org/2000/svg"><g filter="url(#filter0_d_110_26)"><path d="M20.388 17.34L31.175 6.75c.25-.245.39-.573.393-.925a1.304 1.304 0 00-.375-.933l-.78-.794a1.316 1.316 0 00-1.858-.018l-9.06 8.893-8.901-9.069a1.306 1.306 0 00-.926-.392 1.306 1.306 0 00-.933.375l-.794.78a1.3 1.3 0 00-.392.925c-.003.352.13.683.375.933l10.6 10.798c.245.25.575.389.927.392.354.004.686-.13.937-.375z" fill="#E9EEF4"/></g><defs><filter id="filter0_d_110_26" x=".549" y=".512" width="38.019" height="28.203" filterUnits="userSpaceOnUse" color-interpolation-filters="sRGB"><feFlood flood-opacity="0" result="BackgroundImageFix"/><feColorMatrix in="SourceAlpha" values="0 0 0 0 0 0 0 0 0 0 0 0 0 0 0 0 0 0 127 0" result="hardAlpha"/><feOffset dy="4"/><feGaussianBlur stdDeviation="3.5"/><feComposite in2="hardAlpha" operator="out"/><feColorMatrix values="0 0 0 0 0 0 0 0 0 0 0 0 0 0 0 0 0 0 0.2 0"/><feBlend in2="BackgroundImageFix" result="effect1_dropShadow_110_26"/><feBlend in="SourceGraphic" in2="effect1_dropShadow_110_26" result="shape"/></filter></defs></svg>