<svg width="58" height="58" viewBox="0 0 58 58" fill="none" xmlns="http://www.w3.org/2000/svg">
<path d="M52.72 29.36C52.72 42.2614 42.2614 52.72 29.36 52.72C16.4586 52.72 6 42.2614 6 29.36C6 16.4586 16.4586 6 29.36 6C42.2614 6 52.72 16.4586 52.72 29.36Z" fill="url(#paint0_linear_2820_16)"/>
<path d="M24.08 21.3748C22.379 20.4957 21 21.2159 21 22.9822V36.0165C21 37.7846 22.379 38.5039 24.08 37.6255L36.7238 31.0919C38.4254 30.2125 38.4254 28.7876 36.7238 27.9084L24.08 21.3748Z" fill="#F0F3F8"/>
<circle cx="29" cy="29" r="28.5" stroke="#093365"/>
<circle cx="29" cy="29" r="25.5" stroke="#851940"/>
<defs>
<linearGradient id="paint0_linear_2820_16" x1="42.2826" y1="47.2528" x2="18.4255" y2="9.47915" gradientUnits="userSpaceOnUse">
<stop stop-color="#E215A7"/>
<stop offset="1" stop-color="#ED1D2A"/>
</linearGradient>
</defs>
</svg>
