<svg width="48" height="47" fill="none" xmlns="http://www.w3.org/2000/svg"><path fill-rule="evenodd" clip-rule="evenodd" d="M23.508 46.999c-12.958 0-23.5-10.542-23.5-23.5s10.542-23.5 23.5-23.5 23.5 10.542 23.5 23.5-10.542 23.5-23.5 23.5zm0-45.433c-12.094 0-21.933 9.839-21.933 21.933s9.839 21.933 21.933 21.933 21.933-9.839 21.933-21.933S35.602 1.566 23.508 1.566zm0 42.183c-11.166 0-20.25-9.084-20.25-20.25s9.084-20.25 20.25-20.25 20.25 9.084 20.25 20.25-9.084 20.25-20.25 20.25zm0-39c-10.34 0-18.75 8.41-18.75 18.75 0 10.339 8.41 18.75 18.75 18.75 10.339 0 18.75-8.411 18.75-18.75 0-10.34-8.411-18.75-18.75-18.75zm.75 23.073v9.257l5.99-10.891-5.99 1.634zm-.079 12.512l8.224-14.953a.746.746 0 00.038-.692L24.194 5.947a.75.75 0 00-.674-.448.775.775 0 00-.688.425l-8.99 18.731a.75.75 0 00.023.73l8.99 14.985a.75.75 0 001.324-.036zm-1.421-3.042v-9.458l-6.676-1.669 6.676 11.127zm1.5-11.024l6.463-1.764-6.463-14.69v16.454zm-1.5.02V9.547l-7.176 14.948 7.176 1.795z" fill="#E9EEF4"/></svg>