<svg width="114" height="93" fill="none" xmlns="http://www.w3.org/2000/svg"><g opacity=".52" filter="url(#filter0_d_91_90)"><mask id="a" fill="#fff"><path fill-rule="evenodd" clip-rule="evenodd" d="M39.858 42.647a19.927 19.927 0 00-9.8-2.601v-.093a19.695 19.695 0 100 39.343 20.297 20.297 0 008.964-2.044A23.597 23.597 0 0052.957 55.84c0-12.96-8.268-33.862-26.848-48.959a5.11 5.11 0 10-6.457 7.897 67.352 67.352 0 0120.206 27.87zm51.746 0a20.02 20.02 0 00-9.801-2.6h-.093a19.694 19.694 0 100 39.342 20.438 20.438 0 008.732-2.043 23.598 23.598 0 0014.261-21.507c0-12.96-8.269-33.862-26.849-48.958a5.114 5.114 0 10-6.502 7.896 67.074 67.074 0 0120.252 27.87z"/></mask><path d="M30.057 40.046l-.002 1-.998-.002v-.998h1zm9.801 2.601l.933-.36L41.8 44.9l-2.437-1.385.494-.869zm-9.8-2.694l.048-.999.951.046v.953h-1zm-14.541 5.411l-.69-.724.69.724zm-4.519 6.503l.92.394-.92-.394zm0 15.515l.92-.394-.92.394zm4.519 6.503l.69-.724-.69.724zm14.54 5.411l-.048-.999.026-.001h.026l-.004 1zm8.965-2.044l-.437-.899.014-.007.014-.006.41.912zM52.957 55.84h1v.005l-1-.005zM26.11 6.88l-.63.777-.026-.02-.023-.022.679-.735zm-1.773-1.068l-.332.943.332-.943zm-2.051-.277l.07.997-.07-.997zm-1.993.559l.46.888-.46-.888zm-2.566 3.138l-.962-.274.962.274zm-.152 2.064l-.992.13.992-.13zm.68 1.956l.858-.513-.859.513zm1.398 1.525l.585-.811.025.017.023.02-.633.774zm62.15 25.27v-1h.004l-.003 1zm9.802 2.6l.933-.36 1.008 2.61-2.434-1.38.493-.87zm-9.894-2.6v1h-.024l-.025-.002.049-.999zm-7.826 1.213l-.348-.938.348.938zm-6.715 4.197l-.69-.724.69.724zm-4.518 6.504l-.92-.394.92.394zm0 15.514l-.92.394.92-.394zm4.518 6.503l.69-.724-.69.724zm14.54 5.411l-.048-.998.02-.001h.02l.009 1zm8.733-2.043l-.435-.9.02-.01.02-.009.395.919zm10.331-8.632l-.834-.552.834.552zm3.93-12.875h1v.007l-1-.007zM77.854 6.881l-.63.776-.005-.004.636-.772zm-1.758-.944l.292-.956-.292.956zm-3.897.377l.47.883-.47-.883zm-2.687 5.008l-.995.096.995-.096zm.576 1.91l-.883.47.883-.47zm1.264 1.545l-.631.776-.005-.004.636-.772zM30.059 39.046c3.61.008 7.155.949 10.293 2.732l-.988 1.739a18.926 18.926 0 00-9.309-2.471l.004-2zm.998.907v.093h-2v-.093h2zm-9.174.276a20.694 20.694 0 018.223-1.275l-.097 1.998a18.695 18.695 0 00-7.428 1.152l-.698-1.875zm-7.056 4.411a20.696 20.696 0 017.056-4.41l.698 1.874a18.694 18.694 0 00-6.374 3.984l-1.38-1.448zm-4.748 6.833a20.694 20.694 0 014.748-6.833l1.38 1.448a18.694 18.694 0 00-4.29 6.173l-1.838-.788zm-1.673 8.151a20.7 20.7 0 011.673-8.15l1.838.787a18.694 18.694 0 00-1.51 7.363h-2zm1.673 8.152a20.694 20.694 0 01-1.673-8.151h2c0 2.531.514 5.036 1.511 7.363l-1.838.788zm4.748 6.833a20.694 20.694 0 01-4.748-6.833l1.838-.788a18.696 18.696 0 004.29 6.173l-1.38 1.448zm7.056 4.41a20.696 20.696 0 01-7.056-4.41l1.38-1.448a18.694 18.694 0 006.374 3.984l-.698 1.875zm8.223 1.276a20.696 20.696 0 01-8.223-1.275l.698-1.875c2.372.883 4.9 1.275 7.428 1.152l.097 1.998zm9.353-2.143a21.297 21.297 0 01-9.406 2.144l.008-2a19.299 19.299 0 008.524-1.943l.874 1.799zm10.517-9.012a24.597 24.597 0 01-10.544 9.025l-.82-1.825a22.596 22.596 0 009.688-8.29l1.677 1.09zm3.981-13.296a24.596 24.596 0 01-3.98 13.296L48.3 68.05a22.596 22.596 0 003.657-12.216l2 .01zM26.74 6.104C45.528 21.37 53.957 42.547 53.957 55.84h-2c0-12.628-8.107-33.256-26.479-48.182l1.262-1.553zM24.668 4.87a6.11 6.11 0 012.12 1.277L25.43 7.615a4.11 4.11 0 00-1.426-.86l.664-1.886zm-2.453-.332a6.11 6.11 0 012.453.332l-.664 1.886a4.11 4.11 0 00-1.65-.223l-.139-1.995zm-2.382.669a6.109 6.109 0 012.383-.669l.139 1.995a4.11 4.11 0 00-1.603.45l-.92-1.776zM17.91 6.765a6.108 6.108 0 011.923-1.56l.919 1.777a4.109 4.109 0 00-1.293 1.049L17.91 6.765zm-1.146 2.193a6.11 6.11 0 011.146-2.193l1.55 1.265a4.11 4.11 0 00-.771 1.475l-1.924-.548zm-.181 2.469a6.11 6.11 0 01.181-2.469l1.924.548a4.11 4.11 0 00-.122 1.66l-1.983.26zm.812 2.337a6.11 6.11 0 01-.813-2.337l1.983-.26a4.11 4.11 0 00.547 1.572l-1.717 1.025zm1.673 1.824a6.108 6.108 0 01-1.673-1.824l1.717-1.025c.287.481.67.899 1.125 1.227l-1.17 1.622zm19.857 27.42A66.353 66.353 0 0019.02 15.55l1.265-1.549a68.352 68.352 0 0120.506 28.284l-1.865.722zm42.881-3.962a21.02 21.02 0 0110.29 2.731l-.985 1.74a19.02 19.02 0 00-9.312-2.47l.007-2zm-.096 0h.093v2h-.093v-2zm-8.174 1.276a20.696 20.696 0 018.222-1.275l-.097 1.998a18.694 18.694 0 00-7.428 1.152l-.697-1.875zm-7.056 4.411a20.696 20.696 0 017.056-4.41l.697 1.874a18.694 18.694 0 00-6.374 3.984l-1.38-1.448zm-4.748 6.834a20.694 20.694 0 014.748-6.834l1.38 1.448a18.694 18.694 0 00-4.29 6.173l-1.838-.787zm-1.673 8.15c0-2.801.569-5.575 1.673-8.15l1.838.787a18.694 18.694 0 00-1.511 7.364h-2zm1.673 8.152a20.694 20.694 0 01-1.673-8.151h2c0 2.531.514 5.036 1.511 7.363l-1.838.788zm4.748 6.833a20.694 20.694 0 01-4.748-6.833l1.838-.788a18.694 18.694 0 004.29 6.173l-1.38 1.448zm7.056 4.411a20.694 20.694 0 01-7.056-4.41l1.38-1.449a18.694 18.694 0 006.373 3.985l-.697 1.874zm8.222 1.275a20.696 20.696 0 01-8.222-1.275l.697-1.874c2.373.883 4.9 1.274 7.428 1.152l.097 1.997zm9.12-2.142a21.437 21.437 0 01-9.16 2.143l-.017-2a19.437 19.437 0 008.306-1.943l.871 1.8zm10.728-8.98a24.595 24.595 0 01-10.768 8.998l-.791-1.837a22.597 22.597 0 009.892-8.265l1.667 1.105zm4.097-13.42a24.6 24.6 0 01-4.097 13.421l-1.667-1.105a22.602 22.602 0 003.764-12.33l2 .014zM78.485 6.105c18.789 15.265 27.218 36.442 27.218 49.734h-2c0-12.627-8.108-33.255-26.48-48.182l1.262-1.552zM76.388 4.98a6.115 6.115 0 012.102 1.128l-1.27 1.545a4.116 4.116 0 00-1.415-.76l.584-1.912zm-2.374-.238a6.09 6.09 0 012.374.238l-.584 1.912a4.115 4.115 0 00-1.597-.16l-.193-1.99zm-2.284.688a6.115 6.115 0 012.284-.688l.193 1.99c-.538.052-1.06.21-1.538.464l-.94-1.766zm-1.847 1.51a6.114 6.114 0 011.847-1.51l.94 1.766c-.478.254-.9.6-1.243 1.016l-1.544-1.271zm-1.129 2.103a6.114 6.114 0 011.129-2.102l1.544 1.271a4.114 4.114 0 00-.76 1.415l-1.913-.584zm-.237 2.374c-.078-.8.003-1.606.237-2.374l1.913.584a4.117 4.117 0 00-.16 1.597l-1.99.193zm.688 2.284a6.116 6.116 0 01-.688-2.284l1.99-.193c.052.538.21 1.06.464 1.537l-1.766.94zm1.51 1.847a6.116 6.116 0 01-1.51-1.847l1.766-.94c.254.477.599.9 1.016 1.243l-1.271 1.544zm19.956 27.459a66.073 66.073 0 00-19.95-27.455L71.982 14a68.073 68.073 0 0120.555 28.286l-1.866.72z" fill="#E215A7" mask="url(#a)"/></g><defs><filter id="filter0_d_91_90" x=".406" y=".522" width="113.296" height="91.891" filterUnits="userSpaceOnUse" color-interpolation-filters="sRGB"><feFlood flood-opacity="0" result="BackgroundImageFix"/><feColorMatrix in="SourceAlpha" values="0 0 0 0 0 0 0 0 0 0 0 0 0 0 0 0 0 0 127 0" result="hardAlpha"/><feOffset dy="4"/><feGaussianBlur stdDeviation="4.5"/><feComposite in2="hardAlpha" operator="out"/><feColorMatrix values="0 0 0 0 0 0 0 0 0 0 0 0 0 0 0 0 0 0 0.26 0"/><feBlend in2="BackgroundImageFix" result="effect1_dropShadow_91_90"/><feBlend in="SourceGraphic" in2="effect1_dropShadow_91_90" result="shape"/></filter></defs></svg>