<svg width="81" height="81" viewBox="0 0 81 81" fill="none" xmlns="http://www.w3.org/2000/svg">
<path fill-rule="evenodd" clip-rule="evenodd" d="M71.0222 0H9.03658C4.05408 0 0 4.05408 0 9.03658V9.04309V71.0238C0 76.0063 4.05408 80.0604 9.03658 80.0604H71.0222C76.0046 80.0604 80.0587 76.0063 80.0587 71.0238V9.04309V9.03658C80.0587 4.05408 76.0046 0 71.0222 0ZM76.7229 71.0238C76.7229 74.1674 74.1657 76.7246 71.0222 76.7246H9.03658C5.89299 76.7246 3.33578 74.1674 3.33578 71.0238V15.766H76.7229V71.0238ZM76.7229 12.4302H3.33578V9.04309C3.33578 5.89707 5.89462 3.33741 9.04065 3.33741H71.0181C74.1641 3.33741 76.7229 5.89707 76.7229 9.04309V12.4302ZM12.4994 6.21639H12.4823C11.5612 6.21639 10.8234 6.96319 10.8234 7.88428C10.8234 8.80536 11.5783 9.55217 12.4994 9.55217C13.4205 9.55217 14.1673 8.80536 14.1673 7.88428C14.1673 6.96319 13.4205 6.21639 12.4994 6.21639ZM19.8738 6.21639H19.8909C20.812 6.21639 21.5588 6.96319 21.5588 7.88428C21.5588 8.80536 20.812 9.55217 19.8909 9.55217C18.9698 9.55217 18.2149 8.80536 18.2149 7.88428C18.2149 6.96319 18.9527 6.21639 19.8738 6.21639ZM27.2832 6.21639H27.2653C26.3442 6.21639 25.6063 6.96319 25.6063 7.88428C25.6063 8.80536 26.3621 9.55217 27.2832 9.55217C28.2043 9.55217 28.9511 8.80536 28.9511 7.88428C28.9511 6.96319 28.2043 6.21639 27.2832 6.21639ZM40.3372 6.21639H67.5764C68.4975 6.21639 69.2443 6.96319 69.2443 7.88428C69.2443 8.80536 68.4975 9.55217 67.5764 9.55217H40.3372C39.4161 9.55217 38.6693 8.80536 38.6693 7.88428C38.6693 6.96319 39.4161 6.21639 40.3372 6.21639ZM16.4973 51.5555L21.378 52.308C21.6874 53.2869 22.0832 54.2422 22.5621 55.1657L19.6441 59.1302C19.1555 59.7939 19.2247 60.715 19.8078 61.2981L24.9768 66.4671C25.5599 67.0494 26.4794 67.1211 27.1439 66.6316L31.097 63.7259C32.0328 64.2064 32.9929 64.607 33.967 64.923L34.7195 69.7793C34.8457 70.5921 35.5453 71.1915 36.3678 71.1915H43.6909C44.5134 71.1915 45.213 70.5921 45.3392 69.7793L46.0917 64.923C47.0658 64.607 48.0259 64.2064 48.9617 63.7259L52.9148 66.6316C53.5793 67.1211 54.5004 67.0494 55.0819 66.4671L60.2509 61.2981C60.834 60.715 60.9032 59.7939 60.4146 59.1302L57.4966 55.1649C57.9755 54.2414 58.3713 53.2861 58.6807 52.308L63.5614 51.5555C64.375 51.4301 64.9752 50.7305 64.9752 49.9071V42.584C64.9752 41.7615 64.375 41.0611 63.5622 40.9357L58.6872 40.1824C58.3704 39.2027 57.9763 38.249 57.508 37.3312L60.417 33.3569C60.9024 32.694 60.8332 31.7761 60.2533 31.1939L55.0843 26.0078C54.502 25.4246 53.5801 25.3522 52.914 25.8424L48.9487 28.7604C48.0365 28.2881 47.0812 27.8898 46.0926 27.5698L45.3392 22.7119C45.213 21.8991 44.5134 21.2997 43.6909 21.2997H36.3678C35.5453 21.2997 34.8457 21.8991 34.7195 22.7119L33.9661 27.5698C32.9775 27.8898 32.0222 28.2881 31.11 28.7604L27.1447 25.8424C26.481 25.3514 25.5567 25.4238 24.9744 26.0078L19.8054 31.1939C19.2255 31.7761 19.1563 32.694 19.6417 33.3569L22.5507 37.3304C22.0824 38.2482 21.6883 39.2018 21.3706 40.1824L16.4965 40.9357C15.6837 41.0611 15.0835 41.7615 15.0835 42.584V49.9071C15.0835 50.7305 15.6837 51.4301 16.4973 51.5555ZM18.4193 44.0141L22.9286 43.317C23.585 43.2152 24.1192 42.7339 24.287 42.0905C24.6592 40.6694 25.2228 39.3077 25.9622 38.0421C26.2978 37.468 26.2603 36.7505 25.8678 36.2146L23.1762 32.5376L26.3238 29.3794L29.9951 32.0816C30.5375 32.4806 31.2648 32.5156 31.8389 32.1703C33.0825 31.4276 34.4401 30.8608 35.8743 30.4853C36.5168 30.3176 36.999 29.7841 37.1008 29.1277L37.7971 24.6355H42.2616L42.9579 29.1277C43.0597 29.7841 43.5419 30.3176 44.1844 30.4853C45.6186 30.8608 46.9762 31.4276 48.2198 32.1703C48.7964 32.5156 49.5228 32.4806 50.0636 32.0816L53.7349 29.3794L56.8825 32.5376L54.1909 36.2146C53.7984 36.7505 53.7609 37.468 54.0957 38.0413C54.8368 39.3093 55.4003 40.6718 55.7717 42.0905C55.9395 42.7339 56.4737 43.2152 57.1301 43.317L61.6394 44.0141V48.4762L57.113 49.1742C56.4476 49.2768 55.9093 49.7687 55.7481 50.4218C55.4036 51.8161 54.8441 53.1664 54.0859 54.436C53.7422 55.0126 53.7772 55.739 54.1755 56.2798L56.8785 59.9527L53.7365 63.0955L50.0807 60.4088C49.5464 60.0155 48.8257 59.9796 48.2515 60.3119C46.9436 61.0766 45.5762 61.6459 44.1885 62.0042C43.5443 62.1712 43.0597 62.7054 42.9579 63.3634L42.2616 67.8557H37.7971L37.1008 63.3634C36.999 62.7054 36.5144 62.1712 35.8702 62.0042C34.4825 61.6459 33.1151 61.0766 31.8072 60.3119C31.233 59.9764 30.5123 60.0138 29.978 60.4088L26.3222 63.0955L23.1802 59.9527L25.8832 56.2798C26.2815 55.739 26.3165 55.0118 25.972 54.436C25.2146 53.1688 24.6559 51.8185 24.3106 50.4218C24.1494 49.7687 23.6111 49.2768 22.9457 49.1742L18.4193 48.4762V44.0141ZM34.6926 51.6761H35.1373V40.8153H34.6926C33.7715 40.8153 33.0247 40.0685 33.0247 39.1474C33.0247 38.2263 33.7715 37.4795 34.6926 37.4795H35.4956V35.8621C35.4956 34.941 36.2424 34.1942 37.1635 34.1942C38.0846 34.1942 38.8314 34.941 38.8314 35.8621V37.4795H39.9422V35.8621C39.9422 34.941 40.689 34.1942 41.6101 34.1942C42.5312 34.1942 43.278 34.941 43.278 35.8621V37.7146C45.439 38.3523 47.0307 40.3319 47.0307 42.6966C47.0307 44.0706 46.4862 45.3129 45.6148 46.2457C46.4862 47.1785 47.0307 48.4209 47.0307 49.7949C47.0307 52.1596 45.439 54.1392 43.278 54.7769V56.6293C43.278 57.5504 42.5312 58.2972 41.6101 58.2972C40.689 58.2972 39.9422 57.5504 39.9422 56.6293V55.0119H38.8314V56.6293C38.8314 57.5504 38.0846 58.2972 37.1635 58.2972C36.2424 58.2972 35.4956 57.5504 35.4956 56.6293V55.0119H34.6926C33.7715 55.0119 33.0247 54.2651 33.0247 53.344C33.0247 52.4229 33.7715 51.6761 34.6926 51.6761ZM41.8137 40.8153H38.473V44.5778H41.8137C42.8512 44.5778 43.695 43.7341 43.695 42.6966C43.695 41.659 42.8512 40.8153 41.8137 40.8153ZM41.8137 47.9136H38.473V51.6761H41.8137C42.8512 51.6761 43.695 50.8324 43.695 49.7949C43.695 48.7573 42.8512 47.9136 41.8137 47.9136Z" fill="#E9EEF4"/>
</svg>
