<svg width="54" height="46" viewBox="0 0 54 46" fill="none" xmlns="http://www.w3.org/2000/svg">
<path fill-rule="evenodd" clip-rule="evenodd" d="M19.4984 4.68537C19.8352 4.95831 20.3295 4.9064 20.6024 4.56972C22.1473 2.66313 24.3837 1.56971 26.7382 1.56971C29.1628 1.56971 31.4186 2.66083 32.9268 4.56324C33.0817 4.75873 33.3109 4.86066 33.5424 4.86056C33.7132 4.86056 33.8853 4.80509 34.0296 4.69071C34.3693 4.42143 34.4263 3.92767 34.1569 3.58807C32.3491 1.30776 29.6451 0 26.7382 0C23.9081 0 21.227 1.30546 19.3827 3.58158C19.1099 3.91815 19.1617 4.41253 19.4984 4.68537ZM30.9209 7.26914C30.6894 7.26925 30.4602 7.16732 30.3054 6.97182C29.4387 5.87871 28.1427 5.25173 26.7495 5.25194C25.3981 5.25194 24.1132 5.88133 23.224 6.97852C22.951 7.31519 22.4568 7.3671 22.12 7.09416C21.7833 6.82122 21.7315 6.32694 22.0044 5.99017C23.193 4.52333 24.9225 3.68202 26.7495 3.68202C28.6248 3.68202 30.3692 4.52563 31.5355 5.99665C31.8048 6.33626 31.7478 6.83002 31.4081 7.09929C31.2638 7.21368 31.0917 7.26914 30.9209 7.26914ZM24.7821 8.2449C25.2798 7.64342 25.9995 7.29906 26.7613 7.29906C27.5385 7.29906 28.2623 7.64329 28.7527 8.24494C32.3007 9.0345 35.0777 11.8942 35.7464 15.4858H37.5031V11.9132C36.4971 11.5825 35.7685 10.6347 35.7685 9.51955C35.7685 8.13027 36.8988 7 38.288 7C39.6773 7 40.8076 8.13027 40.8076 9.51955C40.8076 10.6347 40.079 11.5825 39.0729 11.9132V16.2707C39.0729 16.7043 38.7215 17.0556 38.288 17.0556H35.8996C35.8998 17.0682 35.9 17.0808 35.9002 17.0933C35.9006 17.1159 35.901 17.1385 35.901 17.1613V19.143H39.3007L41.7313 16.6728C41.8788 16.5228 42.0804 16.4383 42.2908 16.4383H48.6688C48.9995 15.4323 49.9472 14.7037 51.0624 14.7037C52.4516 14.7037 53.5819 15.834 53.582 17.2232C53.582 18.6124 52.4517 19.7427 51.0624 19.7427C49.9472 19.7427 48.9995 19.0141 48.6688 18.0082H42.6196L40.189 20.4784C40.0414 20.6284 39.8399 20.7128 39.6295 20.7128H35.901V22.7979H36.2538C37.5834 22.7979 38.6652 23.8797 38.6652 25.2094V26.2405H42.8391C43.2726 26.2405 43.624 26.5918 43.624 27.0254V28.6849H46.5445C46.8456 27.6305 47.8172 26.856 48.967 26.856C50.3562 26.856 51.4865 27.9863 51.4865 29.3755C51.4865 30.7648 50.3562 31.895 48.967 31.895C47.8867 31.895 46.9635 31.2116 46.606 30.2546H42.839C42.4056 30.2546 42.0541 29.9033 42.0541 29.4697V27.8102H38.6651V31.5243H42.2454C42.6789 31.5243 43.0303 31.8757 43.0303 32.3093V34.3595C43.0303 34.379 43.0288 34.398 43.0274 34.4172C44.0349 34.7471 44.765 35.6955 44.765 36.8118C44.765 38.2011 43.6347 39.3313 42.2454 39.3313C40.8562 39.3313 39.7259 38.2011 39.7259 36.8118C39.7259 35.6955 40.456 34.7471 41.4635 34.4172L41.463 34.4107C41.4618 34.3938 41.4605 34.3768 41.4605 34.3595V33.0942H38.6651V39.9572C38.6651 41.2868 37.5834 42.3686 36.2537 42.3686H35.233C34.7995 42.3686 34.4481 42.0173 34.4481 41.5837C34.4481 41.1501 34.7995 40.7988 35.233 40.7988H36.2537C36.7177 40.7988 37.0953 40.4213 37.0953 39.9572V25.2093C37.0953 24.7452 36.7178 24.3676 36.2537 24.3676H17.2808C16.8168 24.3676 16.4392 24.7452 16.4392 25.2093V34.1457C16.4392 34.5793 16.0878 34.9306 15.6543 34.9306C15.2208 34.9306 14.8694 34.5793 14.8694 34.1457V33.0942H12.1213V34.3595C12.1213 34.3767 12.12 34.3935 12.1188 34.4103L12.1183 34.4172C13.1258 34.7471 13.8559 35.6955 13.8559 36.8118C13.8559 38.2011 12.7256 39.3313 11.3363 39.3313C9.94706 39.3313 8.8168 38.2011 8.8168 36.8118C8.8168 35.6955 9.54687 34.7471 10.5544 34.4172L10.5539 34.4108C10.5527 34.3938 10.5514 34.3768 10.5514 34.3595V32.3093C10.5514 31.8757 10.9029 31.5243 11.3363 31.5243H14.8694V27.8102H11.5277V29.4697C11.5277 29.9033 11.1762 30.2546 10.7428 30.2546H6.97583C6.61833 31.2116 5.69497 31.895 4.61483 31.895C3.22555 31.895 2.09528 30.7648 2.09528 29.3755C2.09528 27.9863 3.22555 26.856 4.61483 26.856C5.76456 26.856 6.73617 27.6305 7.03726 28.6849H9.95784V27.0254C9.95784 26.5918 10.3093 26.2405 10.7428 26.2405H14.8695V25.2094C14.8695 23.8797 15.9512 22.7979 17.2809 22.7979H17.6337V20.7128H13.9525C13.7421 20.7128 13.5406 20.6285 13.393 20.4784L10.9624 18.0082H4.9132C4.58249 19.0141 3.63474 19.7427 2.51955 19.7427C1.13027 19.7427 0 18.6124 0 17.2232C0 15.834 1.13027 14.7037 2.51955 14.7037C3.63474 14.7037 4.58249 15.4323 4.9132 16.4383H11.2911C11.5015 16.4383 11.7031 16.5227 11.8506 16.6728L14.2812 19.143H17.6336V17.1613C17.6336 17.1386 17.634 17.116 17.6344 17.0934C17.6346 17.0808 17.6348 17.0682 17.635 17.0556H15.2938C14.8604 17.0556 14.5089 16.7043 14.5089 16.2707V11.9132C13.5029 11.5825 12.7743 10.6347 12.7743 9.51955C12.7743 8.13027 13.9046 7 15.2938 7C16.6831 7 17.8134 8.13027 17.8134 9.51955C17.8134 10.6347 17.0848 11.5825 16.0788 11.9132V15.4858H17.7882C18.4569 11.8941 21.2339 9.03439 24.7821 8.2449ZM26.4237 30.9799C27.2901 30.8846 28.1569 31.1609 28.8019 31.7387C29.4472 32.3168 29.8173 33.145 29.8173 34.0111C29.8173 34.7619 29.5411 35.4837 29.0395 36.0434C28.9871 36.1017 28.957 36.189 28.957 36.2826V38.2277C28.957 38.8201 28.7241 39.3751 28.3013 39.7903C27.8886 40.1957 27.3453 40.4175 26.7679 40.4175L26.752 40.4174L26.7266 40.4171C25.5416 40.3954 24.5775 39.3923 24.5775 38.1811V36.2826C24.5775 36.1891 24.5469 36.1012 24.4933 36.0413C23.9178 35.398 23.6417 34.5343 23.7358 33.6718C23.8891 32.2668 25.0196 31.1346 26.4237 30.9799ZM27.3873 36.2825C27.3873 35.8004 27.5588 35.3435 27.8704 34.9957C28.1137 34.7244 28.2475 34.3746 28.2476 34.0109C28.2476 33.5907 28.0679 33.1887 27.7546 32.9079C27.437 32.6234 27.0257 32.4923 26.5959 32.5402C25.9171 32.615 25.3706 33.1625 25.2964 33.8419C25.2498 34.2687 25.3801 34.6781 25.6633 34.9947C25.9754 35.3436 26.1473 35.801 26.1473 36.2825V38.181C26.1473 38.5424 26.4201 38.8413 26.7554 38.8474C26.9217 38.8518 27.0819 38.7877 27.2016 38.67C27.3213 38.5524 27.3873 38.3954 27.3873 38.2276V36.2825ZM31.5789 44.179H17.2809C16.8168 44.179 16.4393 43.8015 16.4393 43.3374V41.1627C16.4393 40.7291 16.0879 40.3778 15.6544 40.3778C15.2209 40.3778 14.8695 40.7291 14.8695 41.1627V43.3374C14.8695 44.667 15.9513 45.7488 17.2809 45.7488H31.579C32.0125 45.7488 32.3639 45.3975 32.3639 44.9639C32.3639 44.5303 32.0124 44.179 31.5789 44.179ZM38.288 8.56992C37.7644 8.56992 37.3383 8.99597 37.3383 9.51965C37.3383 10.0432 37.7644 10.4693 38.288 10.4693C38.8117 10.4693 39.2378 10.0433 39.2378 9.51965C39.2378 8.99597 38.8117 8.56992 38.288 8.56992ZM14.3441 9.51965C14.3441 10.0433 14.7702 10.4693 15.2938 10.4693C15.8175 10.4693 16.2436 10.0433 16.2436 9.51965C16.2436 8.99597 15.8175 8.56992 15.2938 8.56992C14.7702 8.56992 14.3441 8.99597 14.3441 9.51965ZM1.56981 17.2232C1.56981 17.7469 1.99586 18.1729 2.51955 18.1729C3.04324 18.1729 3.46929 17.7469 3.46929 17.2232C3.46929 16.6996 3.04324 16.2735 2.51955 16.2735C1.99586 16.2735 1.56981 16.6996 1.56981 17.2232ZM3.66509 29.3755C3.66509 29.8992 4.09114 30.3252 4.61483 30.3252C5.13852 30.3252 5.56457 29.8992 5.56457 29.3755C5.56457 28.8518 5.13852 28.4259 4.61483 28.4259C4.09114 28.4259 3.66509 28.8518 3.66509 29.3755ZM11.3362 37.7616C11.8599 37.7616 12.286 37.3356 12.286 36.8119C12.286 36.2882 11.8599 35.8623 11.3362 35.8623C10.8126 35.8623 10.3865 36.2882 10.3865 36.8119C10.3865 37.3356 10.8126 37.7616 11.3362 37.7616ZM32.4152 22.7979H34.3312H34.3313V17.1614C34.3313 12.9907 30.9382 9.59762 26.7674 9.59762C22.5966 9.59762 19.2035 12.9906 19.2035 17.1614V22.7979H21.1195V20.5756C21.1195 20.1421 21.471 19.7907 21.9044 19.7907C22.3379 19.7907 22.6893 20.1421 22.6893 20.5756V22.7979H30.8455V17.1614C30.8455 14.9127 29.016 13.0833 26.7674 13.0833C24.5851 13.0833 22.7959 14.789 22.6938 16.9666C22.6735 17.3998 22.3049 17.7333 21.873 17.7141C21.44 17.6937 21.1054 17.3262 21.1257 16.8933C21.267 13.8766 23.7451 11.5135 26.7673 11.5135C29.8816 11.5135 32.4152 14.0471 32.4152 17.1614V22.7979ZM43.1953 36.8118C43.1953 36.2881 42.7692 35.8622 42.2455 35.8622C41.722 35.8622 41.2958 36.2881 41.2958 36.8118C41.2958 37.3355 41.7219 37.7615 42.2455 37.7615C42.7692 37.7615 43.1953 37.3355 43.1953 36.8118ZM49.9169 29.3755C49.9169 28.8518 49.4909 28.4259 48.9672 28.4259C48.4435 28.4259 48.0174 28.8518 48.0174 29.3755C48.0174 29.8992 48.4435 30.3252 48.9672 30.3252C49.4909 30.3252 49.9169 29.8992 49.9169 29.3755ZM50.1127 17.2232C50.1127 17.7469 50.5388 18.1729 51.0624 18.1729C51.586 18.1729 52.0122 17.7469 52.0122 17.2232C52.0122 16.6996 51.5861 16.2735 51.0624 16.2735C50.5388 16.2735 50.1127 16.6996 50.1127 17.2232Z" fill="#E9EEF4"/>
</svg>
