<svg width="46" height="46" viewBox="0 0 46 46" fill="none" xmlns="http://www.w3.org/2000/svg">
<path d="M41.937 19.0619C41.0585 19.063 40.2071 19.3669 39.5266 19.9225C38.846 20.4781 38.3777 21.2513 38.2007 22.1119H31.2619V18.4427C31.2631 18.1986 31.2003 17.9584 31.08 17.746C30.9596 17.5335 30.7857 17.3563 30.5757 17.2318L29.9588 16.8719L34.2555 12.5752C35.0437 13.0962 35.9973 13.306 36.9314 13.1639C37.8654 13.0217 38.7134 12.5379 39.311 11.806C39.9086 11.0742 40.2131 10.1465 40.1656 9.20291C40.118 8.25929 39.7218 7.36694 39.0537 6.69886C38.3856 6.03077 37.4933 5.63456 36.5497 5.58702C35.6061 5.53949 34.6784 5.84402 33.9466 6.44159C33.2147 7.03915 32.7308 7.88717 32.5887 8.82123C32.4466 9.7553 32.6564 10.7089 33.1774 11.497L28.5932 16.0789L23.6369 13.1906V7.54803C24.5626 7.35907 25.3852 6.83311 25.9451 6.07213C26.5051 5.31115 26.7626 4.36935 26.6676 3.42933C26.5726 2.48932 26.132 1.61804 25.4312 0.984427C24.7303 0.350813 23.8192 0 22.8744 0C21.9296 0 21.0184 0.350813 20.3176 0.984427C19.6167 1.61804 19.1761 2.48932 19.0812 3.42933C18.9862 4.36935 19.2437 5.31115 19.8036 6.07213C20.3636 6.83311 21.1862 7.35907 22.1119 7.54803V13.1906L17.1556 16.0759L12.5737 11.494C13.0947 10.7058 13.3045 9.75224 13.1623 8.81818C13.0202 7.88412 12.5363 7.0361 11.8045 6.43854C11.0727 5.84097 10.145 5.53644 9.20139 5.58397C8.25777 5.63151 7.36542 6.02772 6.69733 6.69581C6.02925 7.36389 5.63303 8.25624 5.5855 9.19986C5.53796 10.1435 5.8425 11.0711 6.44006 11.803C7.03763 12.5348 7.88564 13.0187 8.81971 13.1608C9.75377 13.3029 10.7073 13.0932 11.4955 12.5722L15.7922 16.8689L15.1777 17.2273C14.9662 17.3517 14.7911 17.5294 14.6699 17.7427C14.5486 17.956 14.4855 18.1974 14.4868 18.4427V22.1119H7.54803C7.35907 21.1862 6.83311 20.3636 6.07213 19.8036C5.31115 19.2437 4.36935 18.9862 3.42933 19.0812C2.48932 19.1761 1.61804 19.6167 0.984427 20.3176C0.350813 21.0184 0 21.9296 0 22.8744C0 23.8192 0.350813 24.7303 0.984427 25.4312C1.61804 26.132 2.48932 26.5726 3.42933 26.6676C4.36935 26.7626 5.31115 26.5051 6.07213 25.9451C6.83311 25.3852 7.35907 24.5626 7.54803 23.6369H14.4868V27.3061C14.4861 27.5506 14.5494 27.791 14.6705 28.0035C14.7915 28.2159 14.9661 28.3929 15.1769 28.5169L15.7938 28.8768L11.497 33.1735C10.7089 32.6526 9.75529 32.4428 8.82123 32.5849C7.88717 32.727 7.03915 33.2109 6.44159 33.9428C5.84402 34.6746 5.53949 35.6022 5.58702 36.5459C5.63455 37.4895 6.03077 38.3818 6.69886 39.0499C7.36694 39.718 8.25929 40.1142 9.20291 40.1618C10.1465 40.2093 11.0742 39.9048 11.806 39.3072C12.5379 38.7096 13.0217 37.8616 13.1639 36.9275C13.306 35.9935 13.0962 35.0399 12.5752 34.2517L17.1556 29.6698L22.1119 32.5582V38.2007C21.1862 38.3897 20.3636 38.9157 19.8036 39.6766C19.2437 40.4376 18.9862 41.3794 19.0812 42.3194C19.1761 43.2595 19.6167 44.1307 20.3176 44.7643C21.0184 45.398 21.9296 45.7488 22.8744 45.7488C23.8192 45.7488 24.7303 45.398 25.4312 44.7643C26.132 44.1307 26.5726 43.2595 26.6676 42.3194C26.7626 41.3794 26.5051 40.4376 25.9451 39.6766C25.3852 38.9157 24.5626 38.3897 23.6369 38.2007V32.5582L28.5932 29.6729L33.1751 34.2548C32.6541 35.043 32.4443 35.9965 32.5864 36.9306C32.7285 37.8647 33.2124 38.7127 33.9443 39.3102C34.6761 39.9078 35.6038 40.2123 36.5474 40.1648C37.491 40.1173 38.3834 39.7211 39.0514 39.053C39.7195 38.3849 40.1157 37.4925 40.1633 36.5489C40.2108 35.6053 39.9063 34.6776 39.3087 33.9458C38.7111 33.214 37.8631 32.7301 36.9291 32.588C35.995 32.4458 35.0414 32.6556 34.2533 33.1766L29.9565 28.8799L30.5711 28.5215C30.7826 28.3971 30.9577 28.2194 31.0789 28.0061C31.2001 27.7928 31.2633 27.5514 31.2619 27.3061V23.6369H38.2007C38.345 24.3437 38.6868 24.995 39.1865 25.5153C39.6862 26.0356 40.3232 26.4034 41.0236 26.5761C41.724 26.7487 42.459 26.7192 43.1432 26.4908C43.8275 26.2625 44.4329 25.8447 44.8892 25.2859C45.3454 24.7272 45.6339 24.0505 45.7209 23.3345C45.808 22.6184 45.6901 21.8923 45.3809 21.2405C45.0718 20.5888 44.5841 20.0381 43.9745 19.6524C43.3649 19.2668 42.6584 19.062 41.937 19.0619ZM34.7367 7.77678C34.9491 7.56434 35.2013 7.39583 35.4789 7.28086C35.7564 7.1659 36.0539 7.10672 36.3543 7.10672C36.6548 7.10672 36.9522 7.1659 37.2298 7.28086C37.5074 7.39583 37.7596 7.56434 37.972 7.77678C38.1844 7.98921 38.3529 8.24141 38.4679 8.51896C38.5829 8.79652 38.642 9.09401 38.642 9.39443C38.642 9.69486 38.5829 9.99234 38.4679 10.2699C38.3529 10.5475 38.1844 10.7997 37.972 11.0121C37.5363 11.428 36.9571 11.66 36.3547 11.66C35.7524 11.66 35.1732 11.428 34.7374 11.0121C34.3086 10.5831 34.0677 10.0014 34.0677 9.39481C34.0677 8.78825 34.3086 8.20651 34.7374 7.77754L34.7367 7.77678ZM7.77678 11.0121C7.45679 10.6922 7.23886 10.2846 7.15054 9.84085C7.06222 9.3971 7.10748 8.93712 7.2806 8.51909C7.45371 8.10106 7.74691 7.74376 8.1231 7.49237C8.4993 7.24099 8.94159 7.10681 9.39405 7.10681C9.84651 7.10681 10.2888 7.24099 10.665 7.49237C11.0412 7.74376 11.3344 8.10106 11.5075 8.51909C11.6806 8.93712 11.7259 9.3971 11.6376 9.84085C11.5492 10.2846 11.3313 10.6922 11.0113 11.0121C10.5756 11.428 9.9964 11.66 9.39405 11.66C8.79171 11.66 8.21251 11.428 7.77678 11.0121V11.0121ZM3.81175 25.1619C3.35932 25.1619 2.91705 25.0277 2.54087 24.7764C2.16469 24.525 1.8715 24.1678 1.69836 23.7498C1.52522 23.3318 1.47992 22.8718 1.56819 22.4281C1.65645 21.9844 1.87432 21.5768 2.19423 21.2569C2.51415 20.937 2.92174 20.7191 3.36548 20.6308C3.80921 20.5426 4.26915 20.5879 4.68714 20.761C5.10513 20.9341 5.46239 21.2273 5.71375 21.6035C5.96511 21.9797 6.09927 22.422 6.09927 22.8744C6.09927 23.4811 5.85826 24.0629 5.42927 24.4919C5.00028 24.9209 4.41844 25.1619 3.81175 25.1619ZM11.0121 37.972C10.5764 38.3879 9.99716 38.6199 9.39481 38.6199C8.79247 38.6199 8.21328 38.3879 7.77754 37.972C7.45756 37.6521 7.23962 37.2445 7.1513 36.8008C7.06298 36.357 7.10824 35.897 7.28136 35.479C7.45448 35.061 7.74767 34.7037 8.12387 34.4523C8.50006 34.2009 8.94236 34.0667 9.39481 34.0667C9.84727 34.0667 10.2896 34.2009 10.6658 34.4523C11.042 34.7037 11.3352 35.061 11.5083 35.479C11.6814 35.897 11.7266 36.357 11.6383 36.8008C11.55 37.2445 11.3321 37.6521 11.0121 37.972V37.972ZM37.972 34.7367C38.4008 35.1657 38.6417 35.7474 38.6417 36.354C38.6417 36.9605 38.4008 37.5423 37.972 37.9712C37.5363 38.3871 36.9571 38.6191 36.3547 38.6191C35.7524 38.6191 35.1732 38.3871 34.7374 37.9712C34.519 37.7602 34.3447 37.5078 34.2248 37.2287C34.1049 36.9496 34.0418 36.6495 34.0392 36.3457C34.0365 36.042 34.0944 35.7408 34.2094 35.4596C34.3245 35.1785 34.4943 34.9231 34.7091 34.7083C34.9239 34.4935 35.1793 34.3237 35.4604 34.2087C35.7415 34.0937 36.0428 34.0358 36.3465 34.0384C36.6502 34.0411 36.9504 34.1042 37.2295 34.2241C37.5086 34.3439 37.761 34.5182 37.972 34.7367V34.7367ZM22.8744 21.983L16.5883 18.1705L22.8744 14.5135L29.1658 18.1774L22.8744 21.983ZM16.0118 19.6086L22.1119 23.3044V30.7915L16.0118 27.239V19.6086ZM23.6369 23.3044L29.7369 19.6147V27.2397L23.6369 30.7922V23.3044ZM20.5869 3.81175C20.5869 3.35932 20.721 2.91705 20.9724 2.54087C21.2237 2.16469 21.581 1.8715 21.999 1.69836C22.417 1.52522 22.8769 1.47992 23.3207 1.56819C23.7644 1.65645 24.172 1.87432 24.4919 2.19423C24.8118 2.51415 25.0297 2.92174 25.1179 3.36548C25.2062 3.80921 25.1609 4.26916 24.9878 4.68714C24.8146 5.10513 24.5214 5.46239 24.1453 5.71375C23.7691 5.96511 23.3268 6.09927 22.8744 6.09927C22.2677 6.09927 21.6859 5.85826 21.2569 5.42927C20.8279 5.00028 20.5869 4.41844 20.5869 3.81175V3.81175ZM25.1619 41.937C25.1619 42.3895 25.0277 42.8317 24.7764 43.2079C24.525 43.5841 24.1678 43.8773 23.7498 44.0504C23.3318 44.2235 22.8718 44.2689 22.4281 44.1806C21.9844 44.0923 21.5768 43.8745 21.2569 43.5545C20.937 43.2346 20.7191 42.827 20.6308 42.3833C20.5426 41.9396 20.5879 41.4796 20.761 41.0616C20.9341 40.6436 21.2273 40.2864 21.6035 40.035C21.9797 39.7837 22.422 39.6495 22.8744 39.6495C23.4811 39.6495 24.0629 39.8905 24.4919 40.3195C24.9209 40.7485 25.1619 41.3303 25.1619 41.937ZM41.937 25.1619C41.4846 25.1619 41.0423 25.0277 40.6661 24.7764C40.29 24.525 39.9968 24.1678 39.8236 23.7498C39.6505 23.3318 39.6052 22.8718 39.6935 22.4281C39.7817 21.9844 39.9996 21.5768 40.3195 21.2569C40.6394 20.937 41.047 20.7191 41.4907 20.6308C41.9345 20.5426 42.3944 20.5879 42.8124 20.761C43.2304 20.9341 43.5877 21.2273 43.839 21.6035C44.0904 21.9797 44.2245 22.422 44.2245 22.8744C44.2245 23.4811 43.9835 24.0629 43.5545 24.4919C43.1255 24.9209 42.5437 25.1619 41.937 25.1619Z" fill="white"/>
<path d="M23.6759 16.7611C23.6239 16.6755 23.5556 16.601 23.4748 16.5419C23.394 16.4827 23.3023 16.4401 23.205 16.4164C23.1077 16.3926 23.0067 16.3883 22.9078 16.4036C22.8088 16.4189 22.7138 16.4536 22.6283 16.5056L21.3396 17.2895C21.2511 17.34 21.1735 17.4077 21.1116 17.4887C21.0496 17.5697 21.0046 17.6623 20.9791 17.761C20.9535 17.8597 20.9481 17.9625 20.963 18.0634C20.9779 18.1642 21.0129 18.2611 21.0658 18.3482C21.1188 18.4353 21.1887 18.5109 21.2714 18.5705C21.3542 18.6301 21.448 18.6725 21.5474 18.6952C21.6468 18.7179 21.7497 18.7205 21.8501 18.7027C21.9505 18.685 22.0463 18.6473 22.1319 18.5918L23.4205 17.8087C23.5061 17.7567 23.5806 17.6884 23.6397 17.6076C23.6988 17.5268 23.7415 17.4351 23.7652 17.3378C23.7889 17.2405 23.7933 17.1395 23.7779 17.0406C23.7626 16.9416 23.728 16.8466 23.6759 16.7611V16.7611Z" fill="white"/>
<path d="M18.7624 22.5157C18.5602 22.5157 18.3662 22.5961 18.2232 22.7391C18.0802 22.8821 17.9999 23.076 17.9999 23.2783V25.5658C17.9999 25.768 18.0802 25.9619 18.2232 26.1049C18.3662 26.2479 18.5602 26.3283 18.7624 26.3283C18.9646 26.3283 19.1586 26.2479 19.3016 26.1049C19.4446 25.9619 19.5249 25.768 19.5249 25.5658V23.2783C19.5249 23.076 19.4446 22.8821 19.3016 22.7391C19.1586 22.5961 18.9646 22.5157 18.7624 22.5157Z" fill="white"/>
</svg>
