<svg width="21" height="28" fill="none" xmlns="http://www.w3.org/2000/svg"><path d="M11.758 12.196V6.14c1.647.218 3.2.75 4.528 1.548.265.143.576.22.897.224 1.03 0 1.87-.652 1.882-1.463.002-.347-.171-.681-.482-.929-1.918-1.292-4.325-2.054-6.847-2.167v-2.03c0-.58-.597-1.05-1.335-1.05-.015-.002-.03-.002-.046-.002C9.607.262 8.99.732 8.98 1.322v1.962C4.057 3.559.71 5.95.71 9.134c0 3.905 4.222 4.989 8.27 5.849v6.882c-2.136-.226-4.148-.922-5.798-2.013a2.147 2.147 0 00-1.094-.31c-1.008.055-1.785.72-1.772 1.514-.002.348.17.681.481.93 2.26 1.6 5.166 2.52 8.204 2.597v1.893l.002.036c.035.588.672 1.042 1.42 1.013.737 0 1.335-.47 1.335-1.05V24.55c5.972-.31 8.378-3.166 8.378-6.194 0-4.06-4.331-5.299-8.378-6.16zM9 11.646c-2.384-.551-4.244-1.12-4.244-2.72S6.442 6.175 9.001 6.02v5.626zm2.757 10.253v-6.262c2.472.55 4.397 1.29 4.375 3.096 0 1.308-1.137 2.857-4.375 3.166z" fill="#E9EEF4"/></svg>