<svg width="31" height="31" fill="none" xmlns="http://www.w3.org/2000/svg"><path d="M15.008 30.777c8.284 0 15-6.715 15-15 0-8.284-6.716-15-15-15-8.284 0-15 6.716-15 15 0 8.285 6.716 15 15 15z" fill="#FEB109"/><path d="M15.01 29.071a13.294 13.294 0 1113.294-13.293A13.309 13.309 0 0115.01 29.071z" fill="#132B4D"/><path d="M7.921 15.775a7.575 7.575 0 017.77-7.77 7.452 7.452 0 016.403 3.459l-2.945 1.707a3.862 3.862 0 00-3.459-1.835c-2.646 0-4.353 1.771-4.353 4.44 0 2.668 1.707 4.439 4.353 4.439a3.838 3.838 0 003.459-1.835l2.945 1.707a7.4 7.4 0 01-6.404 3.458 7.577 7.577 0 01-7.769-7.77z" fill="#FEB109"/><path d="M5.739 16.19a.41.41 0 000-.822H4.337a10.692 10.692 0 0110.26-10.26v1.21a.41.41 0 00.821 0V4.689a.411.411 0 00-.41-.41 11.513 11.513 0 00-11.5 11.498.411.411 0 00.41.41l1.82.001zm9.168 9.473a.411.411 0 01.82-.04l.07 1.4A10.692 10.692 0 0025.54 16.27l-1.208.06a.41.41 0 01-.04-.82l1.624-.08a.412.412 0 01.431.389A11.512 11.512 0 0115.428 27.87a.411.411 0 01-.43-.39l-.09-1.817zM18.372 5.64a10.656 10.656 0 016.927 7.28.412.412 0 00.753.091.411.411 0 00.038-.311 11.474 11.474 0 00-7.46-7.84.41.41 0 00-.258.78zm-6.158 20.45a10.673 10.673 0 01-7.575-7.75.41.41 0 00-.797.197A11.494 11.494 0 0012 26.883a.41.41 0 10.215-.793z" fill="#FEB109"/></svg>