<svg width="46" height="46" fill="none" xmlns="http://www.w3.org/2000/svg"><path d="M21.433 23.915V3.611a.938.938 0 00-.938-.938C9.64 2.673.808 12.347.808 24.236c0 11.89 9.673 21.562 21.562 21.562 5.32 0 8.198-.963 11.847-3.964a.938.938 0 00.144-1.299l-12.928-16.62zm.937 20.008c-10.856 0-19.687-8.83-19.687-19.687 0-10.508 7.487-19.12 16.875-19.661v19.66c0 .209.07.412.198.576l12.556 16.142c-2.961 2.262-5.43 2.97-9.942 2.97z" fill="#E9EEF4"/><path d="M24.245 23.298H44.87c.518 0 .938-.42.938-.937 0-11.89-9.673-21.563-21.563-21.563a.938.938 0 00-.937.938V22.36c0 .517.42.937.937.937zm.938-20.602c10.112.476 18.251 8.615 18.727 18.727H25.183V2.696zM44.87 25.173H26.12a.935.935 0 00-.73 1.526l12.188 15.089a.931.931 0 00.664.347l.066.001c.236 0 .465-.09.64-.25a21.646 21.646 0 006.86-15.775.938.938 0 00-.938-.938zm-6.482 14.633L28.083 27.048H43.91a19.781 19.781 0 01-5.522 12.758z" fill="#E9EEF4"/></svg>