<svg width="46" height="46" fill="none" xmlns="http://www.w3.org/2000/svg"><path d="M45.408 26.289a2.987 2.987 0 00-2.27-1.462 8.233 8.233 0 10-5.613 2.218c.135 0 .263-.015.39-.022l-10.146 5.425c0-.052.015-.105.015-.157a3.747 3.747 0 00-3.747-3.747H9.051a.75.75 0 00-.338.083l-1.955.974a2.248 2.248 0 00-2.203-1.806h-1.5a2.255 2.255 0 00-2.247 2.248V43.53a2.255 2.255 0 002.248 2.248h1.499A2.24 2.24 0 006.78 43.74l2.09.517c.06.014.12.022.18.022h10.296a3.803 3.803 0 001.881-.502l23.095-13.405a2.998 2.998 0 001.086-4.084zM5.304 43.53a.75.75 0 01-.75.75H3.057a.75.75 0 01-.75-.75V30.043a.75.75 0 01.75-.75h1.499a.75.75 0 01.749.75V43.53zm32.221-17.984a6.744 6.744 0 116.744-6.744 6.755 6.755 0 01-6.744 6.744zm6.047 3.53L20.478 42.473c-.344.2-.734.307-1.132.308H9.14l-2.337-.577V31.257l2.427-1.214h14.807a2.248 2.248 0 010 4.496h-11.24v1.498h11.24a3.726 3.726 0 002.96-1.476l15.092-8.063a1.488 1.488 0 011.483 2.578z" fill="#E9EEF4"/><path d="M23.288.819a8.243 8.243 0 100 16.485 8.243 8.243 0 000-16.485zm0 14.986a6.744 6.744 0 116.744-6.743 6.755 6.755 0 01-6.744 6.744zM9.05 10.56a8.243 8.243 0 100 16.486 8.243 8.243 0 000-16.486zm0 14.987a6.744 6.744 0 116.744-6.744 6.754 6.754 0 01-6.743 6.744zm-.749-22.17v4.935H9.8V3.377l1.718 1.718 1.06-1.06L9.58 1.039a.75.75 0 00-1.06 0L5.524 4.036l1.06 1.06 1.718-1.72zm15.736 23.668V22.11l1.718 1.718 1.06-1.059-2.997-2.997a.75.75 0 00-1.06 0l-2.997 2.997 1.06 1.06 1.718-1.719v4.935h1.498zM36.776 3.377v4.935h1.499V3.377l1.718 1.718 1.06-1.06-2.998-2.997a.75.75 0 00-1.06 0l-2.997 2.998 1.06 1.06 1.718-1.72z" fill="#E9EEF4"/><path d="M12.797 17.304a2.237 2.237 0 00-1.506-2.113l.008-1.633h-1.5l-.007 1.498H8.294l.007-1.498H6.803l-.008 1.498H5.304v1.499h1.499v4.496h-1.5v1.499h1.492l-.007 1.468 1.498.008.008-1.476h1.498l-.007 1.468 1.498.008.016-1.611a2.255 2.255 0 001.498-2.113 2.228 2.228 0 00-.584-1.499 2.23 2.23 0 00.584-1.499zm-2.248 3.747H8.301v-1.499h2.248a.75.75 0 110 1.499zm0-2.997H8.301v-1.499h2.248a.75.75 0 010 1.499zm30.723-.75a2.238 2.238 0 00-1.506-2.113l.007-1.633h-1.498l-.008 1.498h-1.499l.008-1.498h-1.499l-.007 1.498h-1.492v1.499h1.5v4.496h-1.5v1.499h1.492l-.008 1.468 1.499.008.007-1.476h1.499l-.008 1.468 1.5.008.014-1.611a2.255 2.255 0 001.499-2.113 2.229 2.229 0 00-.585-1.499c.375-.41.583-.944.585-1.499zm-2.248 3.747h-2.248v-1.499h2.248a.749.749 0 110 1.499zm0-2.997h-2.248v-1.499h2.248a.75.75 0 110 1.499zM27.035 7.563a2.238 2.238 0 00-1.507-2.113l.008-1.634h-1.499l-.007 1.5h-1.5l.008-1.5h-1.5l-.007 1.5h-1.49v1.498h1.498v4.496H19.54v1.498h1.491l-.007 1.47 1.498.007.008-1.477h1.499l-.008 1.47 1.499.007.015-1.611a2.255 2.255 0 001.498-2.114 2.228 2.228 0 00-.584-1.498c.375-.41.583-.944.585-1.499zm-2.248 3.747h-2.248v-1.5h2.247a.75.75 0 110 1.499zm0-2.998h-2.248V6.814h2.247a.75.75 0 110 1.498z" fill="#E9EEF4"/></svg>